<?xml version="1.0" standalone="no"?>
<!DOCTYPE svg PUBLIC "-//W3C//DTD SVG 1.1//EN"
  "http://www.w3.org/Graphics/SVG/1.1/DTD/svg11.dtd">
<svg version="1.1" xmlns="http://www.w3.org/2000/svg" xmlns:xlink="http://www.w3.org/1999/xlink" width="1280" height="720" viewBox="-1040.8888888888887 -32 1889.7777777777776 1063" id="ccdiagram"><filter id="grayscale"><feColorMatrix type="matrix" values="0.3333 0.3333 0.3333 0 0 0.3333 0.3333 0.3333 0 0 0.3333 0.3333 0.3333 0 0 0 0 0 1 0"></feColorMatrix></filter><defs><style type="text/css">@import url('https://fonts.googleapis.com/css?family=Open+Sans:400,700|Inconsolata:400');</style></defs><g><g pointer-events="auto"><g opacity="1"><g><g><polygon points="-64 148, 512 481, 512 518, -128 888, -192 888, -768 555, -768 518, -128 148" fill="#ffffff" stroke-width="2" stroke="#818181"></polygon><polygon points="-96 167, 480 500, -160 870, -736 537" fill="#e6e7e8" stroke-width="0" stroke="#818181"></polygon></g></g></g><g opacity="1"><g><g><polygon points="-576 500, -480 555, -528 583, -560 583, -624 546, -624 527" fill="#4286c5" stroke-width="0" stroke="#818181"></polygon></g></g></g><g opacity="1"><g><g><polygon points="-192 722, -96 777, -144 805, -176 805, -240 768, -240 749" fill="#4286c5" stroke-width="0" stroke="#818181"></polygon></g></g></g><g opacity="1"><g id="35155d75-a622-4a82-bd9c-6475b766e114"><svg x="-337" y="380" overflow="visible"><g fill="#569ddb"><polygon points="0 0, 192 111, -10 228, -202 117" stroke="#569ddb" stroke-width="40"></polygon></g></svg></g></g><g opacity="1"><g id="d3caf0f6-9837-4e1d-95db-210e74b8cc15"><svg x="-80" y="527" overflow="visible"><g fill="#569ddb"><polygon points="0 0, 192 111, -13 230, -205 119" stroke="#569ddb" stroke-width="40"></polygon></g></svg></g></g><g opacity="1"><g id="782ffcb1-ed2a-4069-af82-5562637f45ca"><svg x="-48" y="231" overflow="visible"><g fill="#569ddb"><polygon points="0 0, 174 101, 38 179, -136 78" stroke="#569ddb" stroke-width="40"></polygon></g></svg></g></g><g opacity="1"><g><g><polygon points="-224 315, -96 389, -144 416, -176 416, -272 361, -272 342" fill="#4286c5" stroke-width="0" stroke="#818181"></polygon></g></g></g></g><g pointer-events="auto"></g><g></g><g pointer-events="auto"></g><g></g><g pointer-events="auto"><g opacity="1"><g id="b5bad988-e989-4bbc-9bbf-9e8b0e06440d"><svg x="-432" y="435" overflow="visible"><polygon points="0 0, 448 259, 384 296, -64 37" fill="#f5b720"></polygon><polygon points="0 0, 448 259, 384 296, -64 37" fill="none" stroke-width="20" stroke="#f5b720" opacity="1"></polygon><g cursor="nwse-resize"><polygon points="0 0, -19 -11, 13 -30, -83 -11, -115 44, -83 26, -64 37" fill="#f5b720"></polygon><polygon points="448 259, 467 270, 499 252, 467 307, 371 326, 403 307, 384 296" fill="#f5b720"></polygon></g></svg></g></g></g><g pointer-events="none"></g><g pointer-events="auto"><g><g><g cursor="cell"><line x1="-294" y1="466" x2="-288" y2="463" stroke="red" stroke-width="8" opacity="0"></line><line x1="-294" y1="466" x2="-288" y2="463" stroke="#000000" stroke-width="2" stroke-linecap="none"></line><polygon points="-304 472, -278 466, -292 465, -295 457, -304 472" stroke-linejoin="round" fill="#000000" stroke="#000000" stroke-width="1"></polygon></g><g cursor="cell"><line x1="-256" y1="463" x2="-288" y2="463" stroke="red" stroke-width="8" opacity="0"></line><line x1="-256" y1="463" x2="-288" y2="463" stroke="#000000" stroke-width="2" stroke-linecap="round"></line></g><g cursor="cell"><line x1="-38" y1="614" x2="-32" y2="611" stroke="red" stroke-width="8" opacity="0"></line><line x1="-38" y1="614" x2="-32" y2="611" stroke="#000000" stroke-width="2" stroke-linecap="none"></line><polygon points="-48 620, -22 614, -36 613, -39 605, -48 620" stroke-linejoin="round" fill="#000000" stroke="#000000" stroke-width="1"></polygon></g><g cursor="cell"><line x1="-32" y1="592" x2="-32" y2="611" stroke="red" stroke-width="8" opacity="0"></line><line x1="-32" y1="592" x2="-32" y2="611" stroke="#000000" stroke-width="2" stroke-linecap="round"></line></g><g cursor="cell"><line x1="-256" y1="463" x2="-32" y2="592" stroke="red" stroke-width="8" opacity="0"></line><line x1="-256" y1="463" x2="-32" y2="592" stroke="#000000" stroke-width="2" stroke-linecap="round"></line></g><g cursor="cell"><line x1="-144" y1="527" x2="310" y2="265" stroke="red" stroke-width="8" opacity="0"></line><line x1="-144" y1="527" x2="310" y2="265" stroke="#000000" stroke-width="2" stroke-linecap="round"></line><polygon points="320 259, 294 264, 308 266, 311 274, 320 259" stroke-linejoin="round" fill="#000000" stroke="#000000" stroke-width="1"></polygon></g></g></g><g><g cursor="cell"><line x1="-22" y1="320" x2="96" y2="389" stroke="red" stroke-width="8" opacity="0"></line><line x1="-22" y1="320" x2="96" y2="389" stroke="#000000" stroke-width="2" stroke-linecap="round"></line><polygon points="-32 315, -23 329, -20 322, -6 320, -32 315" stroke-linejoin="round" fill="#000000" stroke="#000000" stroke-width="1"></polygon></g></g></g><g pointer-events="auto"><g opacity="1"><g id="c90d5e2c-c692-4f73-8e30-d80e5c6fa403" transform="translate(0 0)"><svg x="-432" y="435" height="111" width="128" fill-rule="evenodd"><path d="M64 74v37l64-37V37L64 74z" fill="#b8b8bb"></path><path d="M0 37v37l64 37V74L0 37z" fill="#d2d2d4"></path><path d="M0 37L64 0l64 37-64 37L0 37z" fill="#ececed"></path><path d="M64 73.407l62.111-35.86.514.889-62.487 36.078h-.276L.743 38.072l.514-.89L64 73.407z" fill="#83838a"></path><path d="M63.486 74h1.027v36h-1.027z" fill="#83838a"></path><path d="M128 37v37l-64 37L0 74V37L64 0l64 37zM2.054 38.185v34.63L64 108.627l61.946-35.812v-34.63L64 2.373 2.054 38.185z" fill="#000000"></path></svg><svg x="-374" y="453" width="54" height="36" style="overflow: visible; cursor: default;"><rect transform="matrix(0.707 0.409 -0.707 0.409 0 0)" width="54" height="36" rx="5" ry="5" fill="#4286c5"></rect><text transform="matrix(0.707 0.409 -0.707 0.409 0 0)" font-family="Open Sans" text-anchor="middle" x="50%" font-weight="normal" font-size="20pt" y="80%" fill="#ffffff"><tspan>T2</tspan></text></svg></g></g><g opacity="1"><g id="9c786a2d-cf5c-4b63-b958-a97f28fe6494" transform="translate(0 0)"><svg x="-176" y="583" height="111" width="128" fill-rule="evenodd"><path d="M64 74v37l64-37V37L64 74z" fill="#b8b8bb"></path><path d="M0 37v37l64 37V74L0 37z" fill="#d2d2d4"></path><path d="M0 37L64 0l64 37-64 37L0 37z" fill="#ececed"></path><path d="M64 73.407l62.111-35.86.514.889-62.487 36.078h-.276L.743 38.072l.514-.89L64 73.407z" fill="#83838a"></path><path d="M63.486 74h1.027v36h-1.027z" fill="#83838a"></path><path d="M128 37v37l-64 37L0 74V37L64 0l64 37zM2.054 38.185v34.63L64 108.627l61.946-35.812v-34.63L64 2.373 2.054 38.185z" fill="#000000"></path></svg><svg x="-118" y="601" width="54" height="36" style="overflow: visible; cursor: default;"><rect transform="matrix(0.707 0.409 -0.707 0.409 0 0)" width="54" height="36" rx="5" ry="5" fill="#4286c5"></rect><text transform="matrix(0.707 0.409 -0.707 0.409 0 0)" font-family="Open Sans" text-anchor="middle" x="50%" font-weight="normal" font-size="20pt" y="80%" fill="#ffffff"><tspan>T2</tspan></text></svg></g></g></g><g pointer-events="auto"></g><g pointer-events="auto"><g opacity="1"><g id="d201b797-67bb-43e9-a93c-ace833abae3d" transform="translate(0 0)"><svg x="-96" y="130" overflow="visible"><g transform="scale(1.5625) "><circle cx="0" cy="0" fill="transparent" r="40"></circle><svg width="100" height="100" x="-50" y="-50"><svg id="Layer_1" data-name="Layer 1" xmlns="http://www.w3.org/2000/svg" width="100" height="100" viewBox="0 0 100 100"><path d="M85.23 58v3.19C85.23 67 78.85 73 71 73H29c-7.85 0-14.23-6-14.23-11.81V58z" fill="#9d5125"></path><path d="M41.89 26.9a18 18 0 0 1 16.42 10.56 9.14 9.14 0 0 1 14.29 7.18c7.1.59 12.63 7.44 12.63 12.88v1.18c0 5.85-6.38 11.78-14.26 11.78H29c-7.86 0-14.24-5.93-14.24-11.78v-1.17c0-4.51 3.79-10.71 9.12-12.25v-.51A17.94 17.94 0 0 1 41.89 26.9z" fill="#f58535"></path><path d="M31.84 47.81h2.79L37.43 61l3-13.16h2.79l-4.15 16.45h-3.35zM44.91 47.81h5.22c3.16 0 4.55 2 4.55 4.8s-1.73 4.87-4.82 4.87h-2.32v6.81h-2.63zm2.63 7.69h1.87c1.41 0 2.63-.76 2.63-2.84 0-1.78-.71-2.86-2.82-2.86h-1.68zM67 58.38v.35c0 3-1.2 5.89-5.08 5.89-4.16 0-5.45-2.68-5.45-8.56s1.29-8.56 5.47-8.56c4.68 0 5 3.46 5 5.17V53h-2.62v-.28c0-1.52-.46-3.28-2.35-3.21s-2.82 1.2-2.82 6.51.85 6.61 2.85 6.61c2.19 0 2.45-2.45 2.45-4v-.28z" fill="#fff"></path></svg></svg></g></svg></g></g><g opacity="1"><g id="61773633-c497-4887-99e5-d851d0612b38" transform="translate(0 0)"><svg x="320" y="259" overflow="visible"><g transform="scale(1.25) "><circle cx="0" cy="0" fill="transparent" r="40"></circle><svg width="100" height="100" x="-50" y="-50" style=""><svg id="Layer_1" data-name="Layer 1" xmlns="http://www.w3.org/2000/svg" width="100" height="100" viewBox="0 0 100 100"><g><path fill="#2e73b8" d="M82.42 37.44V29.8L74.38 21 61.22 50l13.16 28.99 8.04-8.81v-7.64l-2.68 1.82v-3.67l2.68-1.39v-7.69l-2.68.07v-3.44l2.68.13v-7.49l-2.68-1.4V36.9l2.68.54z"></path><path fill="#5294cf" d="M60.05 86.17l14.33-7.18v-58l-14.33-7.16L43.8 50.61l16.25 35.56z"></path><path fill="#2e73b8" d="M39.95 86.17h20.1V13.83h-20.1L29.57 50.61l10.38 35.56z"></path><path fill="#205b99" d="M39.95 86.17l-14.46-7.18-4.55-28.38 4.55-29.62 14.42-7.16.04 72.34z"></path><path fill="#19486f" d="M79.74 60.69l-5.37 2.62-14.32 3.09h-20.1l-14.06-3.09-.25-.05-.16-.04V52.3l14.45 1.04H60.05l14.33-1.04 8.05-.67-2.69-.02v-3.22l2.65-.03-8.01-.59-14.33-.46H40.06l-14.58.35v-11l.16-.03 14.42-3.39H60.05l14.33 3.39 5.36 2.86v-1.81l2.68-.22-8.04-5.62-14.33-4.63H40.06L25.48 32V20.99l-7.03 8.81v7.65l2.01.23v1.84l-2.01 1.2v7.65l2.01.02v3.22l-2.01.03v7.61l2.01 1.2v1.87l-2.03.23.02 7.62 7.03 8.81V67.97l14.46 4.46h20.11l14.33-4.44 8.04-5.45-2.68-.22v-1.63z"></path></g></svg></svg></g></svg></g></g><g opacity="1"><g id="5c9336ce-6beb-484c-8c9b-cdf08c9df74b" transform="translate(0 0)"><svg x="-32" y="315" overflow="visible"><g transform=" "><circle cx="0" cy="0" fill="transparent" r="40"></circle><svg width="100" height="100" x="-50" y="-50" style=""><svg id="Layer_1" data-name="Layer 1" xmlns="http://www.w3.org/2000/svg" width="100" height="100" viewBox="0 0 100 100"><g><rect x="23.5" y="24.74" width="53" height="53" rx="9.12" ry="9.12" fill="#19486f"></rect><rect x="23.5" y="22.26" width="53" height="53" rx="9.12" ry="9.12" fill="#2e73b8"></rect><path fill="#fff" d="M69 39v-4h-5v-5h-4v5h-2v-5h-4v5h-2v-5h-4v5h-2v-5h-4v5h-2v-5h-4v5h-5v4h5v2h-5v4h5v2h-5v4h5v2h-5v4h5v2h-5v4h5v5h4v-5h2v5h4v-5h2v5h4v-5h2v5h4v-5h2v5h4v-5h5v-4h-5v-2h5v-4h-5v-2h5v-4h-5v-2h5v-4h-5v-2h5z"></path><path d="M42 40h9.93a4.71 4.71 0 0 1 5 4.84 4.39 4.39 0 0 1-3 4.39v.05c2 .49 2.62 2.56 2.75 4.33.07 1.11.2 3.38.9 4.38h-3.84c-.47-1-.42-2.87-.62-4.28-.27-1.85-1-2.72-3-2.72H46v7h-4zm4 8h4.53c1.74 0 2.69-.76 2.69-2.54S52.27 43 50.53 43H46z" fill="#2e73b8"></path></g></svg></svg></g></svg></g></g></g><g pointer-events="auto"><g opacity="1"><g id="1795d0b6-1f55-43b4-adbd-be2def759bde" transform="translate(0 0)"><svg x="-544" y="518" overflow="visible"><text stroke="#000000" stroke-width="2" font-family="Open Sans" y="65" font-size="50pt" fill="#ffffff" font-weight="bold" transform="matrix(0.707 0.409 -0.707 0.409 0 0)" xml:space="preserve"><tspan x="8" dy="0">A</tspan></text><text font-family="Open Sans" y="65" font-size="50pt" fill="#ffffff" font-weight="bold" transform="matrix(0.707 0.409 -0.707 0.409 0 0)" xml:space="preserve"><tspan x="8" dy="0">A</tspan></text></svg></g></g><g opacity="1"><g id="284e5283-c400-4025-ab50-049f66efb11e" transform="translate(0 0)"><svg x="-224" y="500" overflow="visible"><text stroke="#ffffff" stroke-width="4" font-family="Open Sans" y="30.799999999999997" font-size="20pt" fill="#004b91" font-weight="bold" transform="matrix(0.707 0.409 -0.707 0.409 0 0)" xml:space="preserve"><tspan x="8" dy="0">Auto Scaling</tspan></text><text font-family="Open Sans" y="30.799999999999997" font-size="20pt" fill="#004b91" font-weight="bold" transform="matrix(0.707 0.409 -0.707 0.409 0 0)" xml:space="preserve"><tspan x="8" dy="0">Auto Scaling</tspan></text></svg></g></g><g opacity="1"><g id="31910fa9-cc37-4ab1-8c23-6a79e72e3cc8" transform="translate(0 0)"><svg x="-320" y="389" overflow="visible"><text stroke="#000000" stroke-width="2" font-family="Open Sans" y="30.799999999999997" font-size="20pt" fill="#ffffff" font-weight="bold" transform="matrix(0.707 0.409 -0.707 0.409 0 0)" xml:space="preserve"><tspan x="8" dy="0">Availability Zone</tspan></text><text font-family="Open Sans" y="30.799999999999997" font-size="20pt" fill="#ffffff" font-weight="bold" transform="matrix(0.707 0.409 -0.707 0.409 0 0)" xml:space="preserve"><tspan x="8" dy="0">Availability Zone</tspan></text></svg></g></g><g opacity="1"><g id="4d88fce8-b149-40cc-80f8-9fbc14dd150c" transform="translate(0 0)"><svg x="-64" y="537" overflow="visible"><text stroke="#000000" stroke-width="2" font-family="Open Sans" y="30.799999999999997" font-size="20pt" fill="#ffffff" font-weight="bold" transform="matrix(0.707 0.409 -0.707 0.409 0 0)" xml:space="preserve"><tspan x="8" dy="0">Availability Zone</tspan></text><text font-family="Open Sans" y="30.799999999999997" font-size="20pt" fill="#ffffff" font-weight="bold" transform="matrix(0.707 0.409 -0.707 0.409 0 0)" xml:space="preserve"><tspan x="8" dy="0">Availability Zone</tspan></text></svg></g></g><g opacity="1"><g id="1a2dc397-a74c-4cd7-9741-ab02bcc41004" transform="translate(0 0)"><svg x="-128" y="703" overflow="visible"><text stroke="#000000" stroke-width="2" font-family="Open Sans" y="36.5" font-size="25pt" fill="#ffffff" font-weight="bold" transform="matrix(0.707 0.409 -0.707 0.409 0 0)" xml:space="preserve"><tspan x="8" dy="0">EC2</tspan></text><text font-family="Open Sans" y="36.5" font-size="25pt" fill="#ffffff" font-weight="bold" transform="matrix(0.707 0.409 -0.707 0.409 0 0)" xml:space="preserve"><tspan x="8" dy="0">EC2</tspan></text></svg></g></g><g opacity="1"><g id="751e768f-8fa5-4208-825c-ebd08caa225e" transform="translate(0 0)"><svg x="-576" y="500" overflow="visible"><text stroke="#000000" stroke-width="2" font-family="Open Sans" y="36.5" font-size="25pt" fill="#ffffff" font-weight="bold" transform="matrix(0.707 0.409 -0.707 0.409 0 0)" xml:space="preserve"><tspan x="8" dy="0">AZ</tspan></text><text font-family="Open Sans" y="36.5" font-size="25pt" fill="#ffffff" font-weight="bold" transform="matrix(0.707 0.409 -0.707 0.409 0 0)" xml:space="preserve"><tspan x="8" dy="0">AZ</tspan></text></svg></g></g><g opacity="1"><g id="3c67307a-f38c-4062-877c-14ad8cb6d261" transform="translate(0 0)"><svg x="-156" y="744" overflow="visible"><text stroke="#000000" stroke-width="2" font-family="Open Sans" y="65" font-size="50pt" fill="#ffffff" font-weight="bold" transform="matrix(0.707 0.409 -0.707 0.409 0 0)" xml:space="preserve"><tspan x="8" dy="0">B</tspan></text><text font-family="Open Sans" y="65" font-size="50pt" fill="#ffffff" font-weight="bold" transform="matrix(0.707 0.409 -0.707 0.409 0 0)" xml:space="preserve"><tspan x="8" dy="0">B</tspan></text></svg></g></g><g opacity="1"><g id="a8d2e8fb-f21f-4378-8eef-961a99bcf879" transform="translate(0 0)"><svg x="-192" y="722" overflow="visible"><text stroke="#000000" stroke-width="2" font-family="Open Sans" y="36.5" font-size="25pt" fill="#ffffff" font-weight="bold" transform="matrix(0.707 0.409 -0.707 0.409 0 0)" xml:space="preserve"><tspan x="8" dy="0">AZ</tspan></text><text font-family="Open Sans" y="36.5" font-size="25pt" fill="#ffffff" font-weight="bold" transform="matrix(0.707 0.409 -0.707 0.409 0 0)" xml:space="preserve"><tspan x="8" dy="0">AZ</tspan></text></svg></g></g><g opacity="1"><g id="92974a1a-0b3e-4a90-b906-c383e7dd6c38" transform="translate(0 0)"><svg x="-48" y="231" overflow="visible"><text stroke="#000000" stroke-width="2" font-family="Open Sans" y="30.799999999999997" font-size="20pt" fill="#ffffff" font-weight="bold" transform="matrix(0.707 0.409 -0.707 0.409 0 0)" xml:space="preserve"><tspan x="8" dy="0">Availability Zone</tspan></text><text font-family="Open Sans" y="30.799999999999997" font-size="20pt" fill="#ffffff" font-weight="bold" transform="matrix(0.707 0.409 -0.707 0.409 0 0)" xml:space="preserve"><tspan x="8" dy="0">Availability Zone</tspan></text></svg></g></g><g opacity="1"><g id="74090c96-f021-4d96-b384-f1010d642769" transform="translate(0 0)"><svg x="-608" y="463" overflow="visible"><text stroke="#ffffff" stroke-width="4" font-family="Open Sans" y="30.799999999999997" font-size="20pt" fill="#004b91" font-weight="bold" transform="matrix(0.707 -0.409 0.707 0.409 0 0)" xml:space="preserve"><tspan x="8" dy="0">Public Subnets</tspan></text><text font-family="Open Sans" y="30.799999999999997" font-size="20pt" fill="#004b91" font-weight="bold" transform="matrix(0.707 -0.409 0.707 0.409 0 0)" xml:space="preserve"><tspan x="8" dy="0">Public Subnets</tspan></text></svg></g></g><g opacity="1"><g id="0401521f-9055-4cfc-b647-8730947b91bd" transform="translate(0 0)"><svg x="-288" y="278" overflow="visible"><text stroke="#ffffff" stroke-width="4" font-family="Open Sans" y="30.799999999999997" font-size="20pt" fill="#004b91" font-weight="bold" transform="matrix(0.707 -0.409 0.707 0.409 0 0)" xml:space="preserve"><tspan x="8" dy="0">Private Subnet</tspan></text><text font-family="Open Sans" y="30.799999999999997" font-size="20pt" fill="#004b91" font-weight="bold" transform="matrix(0.707 -0.409 0.707 0.409 0 0)" xml:space="preserve"><tspan x="8" dy="0">Private Subnet</tspan></text></svg></g></g><g opacity="1"><g id="782d87ca-e44c-4e2b-bcdf-e9779d628055" transform="translate(0 0)"><svg x="-208" y="342" overflow="visible"><text stroke="#000000" stroke-width="2" font-family="Open Sans" y="59.3" font-size="45pt" fill="#ffffff" font-weight="bold" transform="matrix(0.707 0.409 -0.707 0.409 0 0)" xml:space="preserve"><tspan x="8" dy="0">A/B</tspan></text><text font-family="Open Sans" y="59.3" font-size="45pt" fill="#ffffff" font-weight="bold" transform="matrix(0.707 0.409 -0.707 0.409 0 0)" xml:space="preserve"><tspan x="8" dy="0">A/B</tspan></text></svg></g></g><g opacity="1"><g id="c245b954-7c88-4884-a35d-12c5c25213d9" transform="translate(0 0)"><svg x="-240" y="324" overflow="visible"><text stroke="#000000" stroke-width="2" font-family="Open Sans" y="36.5" font-size="25pt" fill="#ffffff" font-weight="bold" transform="matrix(0.707 0.409 -0.707 0.409 0 0)" xml:space="preserve"><tspan x="8" dy="0">AZ</tspan></text><text font-family="Open Sans" y="36.5" font-size="25pt" fill="#ffffff" font-weight="bold" transform="matrix(0.707 0.409 -0.707 0.409 0 0)" xml:space="preserve"><tspan x="8" dy="0">AZ</tspan></text></svg></g></g><g opacity="1"><g id="136d119e-a836-4bdb-b85c-5665ab3e95de"><svg x="384" y="278" overflow="visible"><text stroke="#ffffff" stroke-width="4" font-family="Open Sans" y="36.5" font-size="25pt" fill="#f5b720" font-weight="bold" transform="matrix(0.707 0.409 -0.707 0.409 0 0)" xml:space="preserve"><tspan x="8" dy="0">DynamoDB</tspan></text><text font-family="Open Sans" y="36.5" font-size="25pt" fill="#f5b720" font-weight="bold" transform="matrix(0.707 0.409 -0.707 0.409 0 0)" xml:space="preserve"><tspan x="8" dy="0">DynamoDB</tspan></text></svg></g></g><g opacity="1"><g id="9cffba51-588e-4d31-a9cc-ce3f7df9b499"><svg x="-144" y="305" overflow="visible"><text stroke="#ffffff" stroke-width="4" font-family="Open Sans" y="36.5" font-size="25pt" fill="#f5b720" font-weight="bold" transform="matrix(0.707 0.409 -0.707 0.409 0 0)" xml:space="preserve"><tspan x="8" dy="0">Redis Cache</tspan></text><text font-family="Open Sans" y="36.5" font-size="25pt" fill="#f5b720" font-weight="bold" transform="matrix(0.707 0.409 -0.707 0.409 0 0)" xml:space="preserve"><tspan x="8" dy="0">Redis Cache</tspan></text></svg></g></g></g><g></g></g></svg>