<?xml version="1.0" standalone="no"?>
<!DOCTYPE svg PUBLIC "-//W3C//DTD SVG 1.1//EN"
  "http://www.w3.org/Graphics/SVG/1.1/DTD/svg11.dtd">
<svg version="1.1" xmlns="http://www.w3.org/2000/svg" xmlns:xlink="http://www.w3.org/1999/xlink" width="1280" height="720" viewBox="-716.8888888888887 -32 2513.7777777777774 1414" id="ccdiagram"><filter id="grayscale"><feColorMatrix type="matrix" values="0.3333 0.3333 0.3333 0 0 0.3333 0.3333 0.3333 0 0 0.3333 0.3333 0.3333 0 0 0 0 0 1 0"></feColorMatrix></filter><defs><style type="text/css">@import url('https://fonts.googleapis.com/css?family=Open+Sans:400,700|Inconsolata:400');</style></defs><g><g pointer-events="auto"></g><g pointer-events="auto"><g opacity="1"><g id="768760af-b147-44d2-ab34-880792c37b4f"><g><g><polygon points="945 653, 990 608, 990 338, 945 293, 90 293, 90 608, 135 653" stroke="#3f51b5" stroke-width="8" fill="none"></polygon></g><g><polygon points="90 293, 45 293, 45 563, 90 608" stroke="#3f51b5" stroke-width="8" fill="#3f51b5"></polygon><text font-family="Inconsolata" font-size="20pt" font-weight="bold" fill="#ffffff" transform="translate(77 347) rotate(270)" text-anchor="end">ASG SecurityGrps</text><g transform="translate(56 304) "><svg width="23" height="32" style="fill: rgb(255, 255, 255);"><svg xmlns="http://www.w3.org/2000/svg" width="23" height="32" viewBox="0 0 23 32"><path d="M19.429 17.143V5.714h-8v20.304c.911-.482 2.375-1.321 3.804-2.446 1.911-1.5 4.196-3.839 4.196-6.429zm3.428-13.714v13.714c0 7.518-10.518 12.268-10.964 12.464a1.049 1.049 0 0 1-.928 0C10.519 29.411.001 24.661.001 17.143V3.429c0-.625.518-1.143 1.143-1.143h20.571c.625 0 1.143.518 1.143 1.143z"></path></svg></svg></g></g></g></g></g><g opacity="1"><g id="8062c43b-6989-4c69-8577-56f9c6567283" cursor="all-scroll"><g><g><polygon points="675 1170, 720 1125, 720 855, 675 810, 360 810, 360 1125, 405 1170" stroke="#3f51b5" stroke-width="8" fill="none"></polygon></g><g><polygon points="360 810, 315 810, 315 1080, 360 1125" stroke="#3f51b5" stroke-width="8" fill="#3f51b5"></polygon><text font-family="Inconsolata" font-size="20pt" font-weight="bold" fill="#ffffff" transform="translate(347 864) rotate(270)" text-anchor="end">ALB SecurityGrp</text><g transform="translate(326 821) "><svg width="23" height="32" style="fill: rgb(255, 255, 255);"><svg xmlns="http://www.w3.org/2000/svg" width="23" height="32" viewBox="0 0 23 32"><path d="M19.429 17.143V5.714h-8v20.304c.911-.482 2.375-1.321 3.804-2.446 1.911-1.5 4.196-3.839 4.196-6.429zm3.428-13.714v13.714c0 7.518-10.518 12.268-10.964 12.464a1.049 1.049 0 0 1-.928 0C10.519 29.411.001 24.661.001 17.143V3.429c0-.625.518-1.143 1.143-1.143h20.571c.625 0 1.143.518 1.143 1.143z"></path></svg></svg></g></g></g></g></g></g><g></g><g pointer-events="auto"></g><g></g><g pointer-events="auto"><g opacity="1"><g id="b5bad988-e989-4bbc-9bbf-9e8b0e06440d"><svg x="225" y="428" overflow="visible"><polygon points="0 0, 630 0, 630 90, 0 90" fill="#f5b720"></polygon><polygon points="0 0, 630 0, 630 90, 0 90" fill="none" stroke-width="20" stroke="#f5b720" opacity="1"></polygon><g cursor="nwse-resize"><polygon points="0 0, -27 0, -27 -45, -72 45, -27 135, -27 90, 0 90" fill="#f5b720"></polygon><polygon points="630 0, 657 0, 657 -45, 702 45, 657 135, 657 90, 630 90" fill="#f5b720"></polygon></g></svg></g></g></g><g pointer-events="none"></g><g pointer-events="auto"><g><g><g cursor="cell"><line x1="360" y1="585" x2="360" y2="531" stroke="red" stroke-width="8" opacity="0"></line><line x1="360" y1="585" x2="360" y2="531" stroke="#000000" stroke-width="2" stroke-linecap="none"></line><polygon points="360 518, 349 542, 360 535, 371 542, 360 518" stroke-linejoin="round" fill="#000000" stroke="#000000" stroke-width="1"></polygon></g><g cursor="cell"><line x1="383" y1="608" x2="360" y2="585" stroke="red" stroke-width="8" opacity="0"></line><line x1="383" y1="608" x2="360" y2="585" stroke="#000000" stroke-width="2" stroke-linecap="round"></line></g><g cursor="cell"><line x1="720" y1="585" x2="720" y2="531" stroke="red" stroke-width="8" opacity="0"></line><line x1="720" y1="585" x2="720" y2="531" stroke="#000000" stroke-width="2" stroke-linecap="none"></line><polygon points="720 518, 709 542, 720 535, 731 542, 720 518" stroke-linejoin="round" fill="#000000" stroke="#000000" stroke-width="1"></polygon></g><g cursor="cell"><line x1="698" y1="608" x2="720" y2="585" stroke="red" stroke-width="8" opacity="0"></line><line x1="698" y1="608" x2="720" y2="585" stroke="#000000" stroke-width="2" stroke-linecap="round"></line></g><g cursor="cell"><line x1="383" y1="608" x2="698" y2="608" stroke="red" stroke-width="8" opacity="0"></line><line x1="383" y1="608" x2="698" y2="608" stroke="#000000" stroke-width="2" stroke-linecap="round"></line></g><g cursor="cell"><line x1="540" y1="945" x2="540" y2="608" stroke="red" stroke-width="8" opacity="0"></line><line x1="540" y1="945" x2="540" y2="608" stroke="#000000" stroke-width="2" stroke-linecap="round"></line></g></g></g><g><g cursor="cell"><line x1="540" y1="1260" x2="540" y2="1049" stroke="red" stroke-width="8" opacity="0"></line><line x1="540" y1="1260" x2="540" y2="1049" stroke="#000000" stroke-width="2" stroke-linecap="round"></line><polygon points="540 1035, 529 1059, 540 1053, 551 1059, 540 1035" stroke-linejoin="round" fill="#000000" stroke="#000000" stroke-width="1"></polygon></g></g><g><g cursor="cell"><line x1="270" y1="1260" x2="270" y2="689" stroke="red" stroke-width="8" opacity="0"></line><line x1="270" y1="1260" x2="270" y2="689" stroke="#000000" stroke-width="2" stroke-linecap="round"></line><polygon points="270 675, 259 699, 270 693, 281 699, 270 675" stroke-linejoin="round" fill="#000000" stroke="#000000" stroke-width="1"></polygon></g></g><g><g cursor="cell"><line x1="540" y1="126" x2="540" y2="293" stroke="red" stroke-width="8" opacity="0"></line><line x1="540" y1="126" x2="540" y2="293" stroke="#000000" stroke-width="2" stroke-linecap="round"></line><polygon points="540 113, 529 137, 540 130, 551 137, 540 113" stroke-linejoin="round" fill="#000000" stroke="#000000" stroke-width="1"></polygon></g></g></g><g pointer-events="auto"><g opacity="1"><g id="c90d5e2c-c692-4f73-8e30-d80e5c6fa403" transform="translate(0 0)"><svg x="315" y="428" height="90" id="svg51" width="90" version="1.1"><defs id="defs4"></defs><g id="Working" transform="translate(0 40)"><g id="g883" transform="matrix(1.83333 0 0 1.83333 -.833 -40.833)"><path class="cls-1" id="path8" d="M44.31 44.31H5.69V5.69h38.62zm-36.62-2h34.62V7.69H7.69z" fill="#d86613" fill-opacity="1"></path><path class="cls-1" id="rect10" d="M11.21 1h2v5.69h-2z" fill="#d86613" fill-opacity="1"></path><path class="cls-1" id="rect12" d="M17.48 1h2v5.69h-2z" fill="#d86613" fill-opacity="1"></path><path class="cls-1" id="rect14" d="M23.76 1h2v5.69h-2z" fill="#d86613" fill-opacity="1"></path><path class="cls-1" id="rect16" d="M30.04 1h2v5.69h-2z" fill="#d86613" fill-opacity="1"></path><path class="cls-1" id="rect18" d="M36.32 1h2v5.69h-2z" fill="#d86613" fill-opacity="1"></path><path class="cls-1" id="rect20" d="M11.21 43.31h2V49h-2z" fill="#d86613" fill-opacity="1"></path><path class="cls-1" id="rect22" d="M17.48 43.31h2V49h-2z" fill="#d86613" fill-opacity="1"></path><path class="cls-1" id="rect24" d="M23.76 43.31h2V49h-2z" fill="#d86613" fill-opacity="1"></path><path class="cls-1" id="rect26" d="M30.04 43.31h2V49h-2z" fill="#d86613" fill-opacity="1"></path><path class="cls-1" id="rect28" d="M36.32 43.31h2V49h-2z" fill="#d86613" fill-opacity="1"></path><path class="cls-1" id="rect30" d="M43.31 11.45H49v2h-5.69z" fill="#d86613" fill-opacity="1"></path><path class="cls-1" id="rect32" d="M43.31 17.72H49v2h-5.69z" fill="#d86613" fill-opacity="1"></path><path class="cls-1" id="rect34" d="M43.31 24H49v2h-5.69z" fill="#d86613" fill-opacity="1"></path><path class="cls-1" id="rect36" d="M43.31 30.28H49v2h-5.69z" fill="#d86613" fill-opacity="1"></path><path class="cls-1" id="rect38" d="M43.31 36.55H49v2h-5.69z" fill="#d86613" fill-opacity="1"></path><path class="cls-1" id="rect40" d="M1 11.45h5.69v2H1z" fill="#d86613" fill-opacity="1"></path><path class="cls-1" id="rect42" d="M1 17.72h5.69v2H1z" fill="#d86613" fill-opacity="1"></path><path class="cls-1" id="rect44" d="M1 24h5.69v2H1z" fill="#d86613" fill-opacity="1"></path><path class="cls-1" id="rect46" d="M1 30.28h5.69v2H1z" fill="#d86613" fill-opacity="1"></path><path class="cls-1" id="rect48" d="M1 36.55h5.69v2H1z" fill="#d86613" fill-opacity="1"></path><path id="rect836" d="M7.69 7.69h34.62v34.62H7.69z" fill="#d86613" fill-opacity="1" opacity=".05" stroke="#d86613" stroke-opacity="0" stroke-width=".545"></path></g></g></svg><svg x="333" y="455" width="54" height="36" style="overflow: visible; cursor: default;"><text transform="" font-family="Open Sans" text-anchor="middle" x="50%" font-weight="bold" font-size="18pt" y="75%" fill="#d86613"><tspan>T2</tspan></text></svg></g></g><g opacity="1"><g id="9c786a2d-cf5c-4b63-b958-a97f28fe6494" transform="translate(0 0)"><svg x="675" y="428" height="90" id="svg51" width="90" version="1.1"><defs id="defs4"></defs><g id="Working" transform="translate(0 40)"><g id="g883" transform="matrix(1.83333 0 0 1.83333 -.833 -40.833)"><path class="cls-1" id="path8" d="M44.31 44.31H5.69V5.69h38.62zm-36.62-2h34.62V7.69H7.69z" fill="#d86613" fill-opacity="1"></path><path class="cls-1" id="rect10" d="M11.21 1h2v5.69h-2z" fill="#d86613" fill-opacity="1"></path><path class="cls-1" id="rect12" d="M17.48 1h2v5.69h-2z" fill="#d86613" fill-opacity="1"></path><path class="cls-1" id="rect14" d="M23.76 1h2v5.69h-2z" fill="#d86613" fill-opacity="1"></path><path class="cls-1" id="rect16" d="M30.04 1h2v5.69h-2z" fill="#d86613" fill-opacity="1"></path><path class="cls-1" id="rect18" d="M36.32 1h2v5.69h-2z" fill="#d86613" fill-opacity="1"></path><path class="cls-1" id="rect20" d="M11.21 43.31h2V49h-2z" fill="#d86613" fill-opacity="1"></path><path class="cls-1" id="rect22" d="M17.48 43.31h2V49h-2z" fill="#d86613" fill-opacity="1"></path><path class="cls-1" id="rect24" d="M23.76 43.31h2V49h-2z" fill="#d86613" fill-opacity="1"></path><path class="cls-1" id="rect26" d="M30.04 43.31h2V49h-2z" fill="#d86613" fill-opacity="1"></path><path class="cls-1" id="rect28" d="M36.32 43.31h2V49h-2z" fill="#d86613" fill-opacity="1"></path><path class="cls-1" id="rect30" d="M43.31 11.45H49v2h-5.69z" fill="#d86613" fill-opacity="1"></path><path class="cls-1" id="rect32" d="M43.31 17.72H49v2h-5.69z" fill="#d86613" fill-opacity="1"></path><path class="cls-1" id="rect34" d="M43.31 24H49v2h-5.69z" fill="#d86613" fill-opacity="1"></path><path class="cls-1" id="rect36" d="M43.31 30.28H49v2h-5.69z" fill="#d86613" fill-opacity="1"></path><path class="cls-1" id="rect38" d="M43.31 36.55H49v2h-5.69z" fill="#d86613" fill-opacity="1"></path><path class="cls-1" id="rect40" d="M1 11.45h5.69v2H1z" fill="#d86613" fill-opacity="1"></path><path class="cls-1" id="rect42" d="M1 17.72h5.69v2H1z" fill="#d86613" fill-opacity="1"></path><path class="cls-1" id="rect44" d="M1 24h5.69v2H1z" fill="#d86613" fill-opacity="1"></path><path class="cls-1" id="rect46" d="M1 30.28h5.69v2H1z" fill="#d86613" fill-opacity="1"></path><path class="cls-1" id="rect48" d="M1 36.55h5.69v2H1z" fill="#d86613" fill-opacity="1"></path><path id="rect836" d="M7.69 7.69h34.62v34.62H7.69z" fill="#d86613" fill-opacity="1" opacity=".05" stroke="#d86613" stroke-opacity="0" stroke-width=".545"></path></g></g></svg><svg x="693" y="455" width="54" height="36" style="overflow: visible; cursor: default;"><text transform="" font-family="Open Sans" text-anchor="middle" x="50%" font-weight="bold" font-size="18pt" y="75%" fill="#d86613"><tspan>T2</tspan></text></svg></g></g><g opacity="1"><g id="4fa727c9-36b9-4773-bf99-258500555073" cursor="all-scroll" transform="translate(0 0)"><svg x="495" y="945" height="90" width="90"><path d="M0 0h90v90H0z" fill="#693cc5" data-name="Orange Light BG"></path><path d="M59.448 46.2a7.464 7.464 0 1 0 0-2.4h-8.952a16.932 16.932 0 0 0-1.68-6.36l10.8-9.132a7.464 7.464 0 1 0-2.832-5.844 7.296 7.296 0 0 0 1.2 4.08l-10.44 8.796a17.4 17.4 0 1 0 0 19.32l10.44 8.796a7.296 7.296 0 0 0-1.2 4.08 7.452 7.452 0 1 0 2.832-5.844l-10.8-9.132a16.932 16.932 0 0 0 1.68-6.36zm7.344-6.264A5.064 5.064 0 1 1 61.74 45a5.064 5.064 0 0 1 5.052-5.064zM64.296 17.4a5.064 5.064 0 1 1-5.064 5.064 5.064 5.064 0 0 1 5.064-5.064zm0 45.084a5.064 5.064 0 1 1-5.064 5.052 5.064 5.064 0 0 1 5.064-5.052zM33.144 60a15 15 0 1 1 15-15 15.024 15.024 0 0 1-15 15z" fill="#ffffff" data-name="Product Icon"></path></svg></g></g><g opacity="1"><g id="4819c3ed-2937-484a-890b-3848edd74a59" transform="translate(0 0)"><svg x="225" y="1260" height="90" id="svg13" width="90" version="1.1"><defs id="defs4"></defs><g id="Working" transform="matrix(1.9149 0 0 1.9149 -2.872 -2.852)"><circle id="path819" cx="25.03" cy="13.644" fill="#b43a13" fill-opacity="1" opacity=".05" r="10.787" stroke="none" stroke-opacity="1" stroke-width=".522"></circle><path class="cls-1" id="path8-6" d="M47.5 48.44h-45a1 1 0 0 1-1-1v-3a22.73 22.73 0 0 1 17.36-22.1 1.06 1.06 0 0 1 .72.09 11.29 11.29 0 0 0 10.82 0 1 1 0 0 1 .71-.09A22.73 22.73 0 0 1 48.5 44.45v3a1 1 0 0 1-1 .99z" fill="#b43a13" fill-opacity="1" opacity=".05" stroke-width="1"></path><path class="cls-1" id="path8" d="M47.5 48.44h-45a1 1 0 0 1-1-1v-3a22.73 22.73 0 0 1 17.36-22.1 1.06 1.06 0 0 1 .72.09 11.29 11.29 0 0 0 10.82 0 1 1 0 0 1 .71-.09A22.73 22.73 0 0 1 48.5 44.45v3a1 1 0 0 1-1 .99zm-44-2h43v-2A20.71 20.71 0 0 0 31 24.39a13.51 13.51 0 0 1-6 1.43 13.21 13.21 0 0 1-6-1.43A20.72 20.72 0 0 0 3.5 44.45z" fill="#b43a13" fill-opacity="1"></path><path class="cls-1" id="path10" d="M25 25.75a12.18 12.18 0 0 1-5.9-1.5 12.13 12.13 0 1 1 18.06-10.58 12 12 0 0 1-6.32 10.58 12.38 12.38 0 0 1-5.84 1.5zm0-22.19a10.08 10.08 0 0 0-5 18.94 10.33 10.33 0 0 0 9.85 0A10.08 10.08 0 0 0 25 3.56z" fill="#b43a13" fill-opacity="1"></path></g></svg></g></g><g opacity="1"><g id="2685515d-0fdf-4c31-b26d-7cf5ad8c321d" transform="translate(0 0)"><svg x="495" y="1260" height="90" id="svg13" width="90" version="1.1"><defs id="defs4"></defs><g id="Working" transform="matrix(1.9149 0 0 1.9149 -2.872 -2.852)"><circle id="path819" cx="25.03" cy="13.644" fill="#4caf50" fill-opacity="1" opacity=".05" r="10.787" stroke="none" stroke-opacity="1" stroke-width=".522"></circle><path class="cls-1" id="path8-6" d="M47.5 48.44h-45a1 1 0 0 1-1-1v-3a22.73 22.73 0 0 1 17.36-22.1 1.06 1.06 0 0 1 .72.09 11.29 11.29 0 0 0 10.82 0 1 1 0 0 1 .71-.09A22.73 22.73 0 0 1 48.5 44.45v3a1 1 0 0 1-1 .99z" fill="#4caf50" fill-opacity="1" opacity=".05" stroke-width="1"></path><path class="cls-1" id="path8" d="M47.5 48.44h-45a1 1 0 0 1-1-1v-3a22.73 22.73 0 0 1 17.36-22.1 1.06 1.06 0 0 1 .72.09 11.29 11.29 0 0 0 10.82 0 1 1 0 0 1 .71-.09A22.73 22.73 0 0 1 48.5 44.45v3a1 1 0 0 1-1 .99zm-44-2h43v-2A20.71 20.71 0 0 0 31 24.39a13.51 13.51 0 0 1-6 1.43 13.21 13.21 0 0 1-6-1.43A20.72 20.72 0 0 0 3.5 44.45z" fill="#4caf50" fill-opacity="1"></path><path class="cls-1" id="path10" d="M25 25.75a12.18 12.18 0 0 1-5.9-1.5 12.13 12.13 0 1 1 18.06-10.58 12 12 0 0 1-6.32 10.58 12.38 12.38 0 0 1-5.84 1.5zm0-22.19a10.08 10.08 0 0 0-5 18.94 10.33 10.33 0 0 0 9.85 0A10.08 10.08 0 0 0 25 3.56z" fill="#4caf50" fill-opacity="1"></path></g></svg></g></g></g><g pointer-events="auto"></g><g pointer-events="auto"><g opacity="1"><g id="c8c929bd-f708-4a45-aaf9-09d0482c4e76" transform="translate(0 0)"><svg x="540" y="113" overflow="visible"><g transform="scale(1.3975424859373686) "><circle cx="0" cy="0" fill="transparent" r="40"></circle><svg width="100" height="100" x="-50" y="-50"><svg id="Layer_1" data-name="Layer 1" xmlns="http://www.w3.org/2000/svg" width="100" height="100" viewBox="0 0 100 100"><g><rect x="23.5" y="24.74" width="53" height="53" rx="9.12" ry="9.12" fill="#19486f"></rect><rect x="23.5" y="22.26" width="53" height="53" rx="9.12" ry="9.12" fill="#2e73b8"></rect><path fill="#fff" d="M69 39v-4h-5v-5h-4v5h-2v-5h-4v5h-2v-5h-4v5h-2v-5h-4v5h-2v-5h-4v5h-5v4h5v2h-5v4h5v2h-5v4h5v2h-5v4h5v2h-5v4h5v5h4v-5h2v5h4v-5h2v5h4v-5h2v5h4v-5h2v5h4v-5h5v-4h-5v-2h5v-4h-5v-2h5v-4h-5v-2h5v-4h-5v-2h5z"></path><path d="M42 40h9.93a4.71 4.71 0 0 1 5 4.84 4.39 4.39 0 0 1-3 4.39v.05c2 .49 2.62 2.56 2.75 4.33.07 1.11.2 3.38.9 4.38h-3.84c-.47-1-.42-2.87-.62-4.28-.27-1.85-1-2.72-3-2.72H46v7h-4zm4 8h4.53c1.74 0 2.69-.76 2.69-2.54S52.27 43 50.53 43H46z" fill="#2e73b8"></path></g></svg></svg></g></svg></g></g><g opacity="1"><g id="beefbb3a-d4af-48a3-8729-3236ca88799d" transform="translate(0 0)"><svg x="540" y="743" overflow="visible"><g transform="scale(1.3975424859373686) "><circle cx="0" cy="0" fill="#000000" r="24"></circle><svg width="34" height="32" x="-17" y="-16" style="fill: rgb(255, 255, 255);"><svg xmlns="http://www.w3.org/2000/svg" width="34" height="32" viewBox="0 0 34 32"><path d="M16 16c0-2.518-2.054-4.571-4.571-4.571S6.858 13.483 6.858 16s2.054 4.571 4.571 4.571S16 18.517 16 16zm13.714 9.143c0-1.25-1.036-2.286-2.286-2.286s-2.286 1.036-2.286 2.286a2.29 2.29 0 0 0 2.286 2.286 2.29 2.29 0 0 0 2.286-2.286zm0-18.286c0-1.25-1.036-2.286-2.286-2.286s-2.286 1.036-2.286 2.286a2.29 2.29 0 0 0 2.286 2.286 2.29 2.29 0 0 0 2.286-2.286zm-6.857 7.518v3.304c0 .232-.179.5-.411.536l-2.768.429a8.133 8.133 0 0 1-.571 1.357c.5.714 1.036 1.375 1.607 2.054a.619.619 0 0 1 .125.357c0 .125-.036.25-.125.339-.357.482-2.357 2.661-2.875 2.661a.676.676 0 0 1-.375-.125L15.41 23.68a7.648 7.648 0 0 1-1.375.554c-.089.911-.179 1.893-.411 2.768a.57.57 0 0 1-.536.429H9.767c-.25 0-.5-.196-.536-.446l-.411-2.732a8.732 8.732 0 0 1-1.339-.554l-2.107 1.589a.515.515 0 0 1-.357.125.577.577 0 0 1-.375-.143c-.464-.429-2.571-2.339-2.571-2.857a.61.61 0 0 1 .125-.339c.518-.679 1.054-1.339 1.571-2.036a9.515 9.515 0 0 1-.625-1.464l-2.714-.429a.52.52 0 0 1-.429-.518v-3.304c0-.232.179-.5.411-.536l2.768-.429c.143-.464.339-.911.571-1.357a29.272 29.272 0 0 0-1.607-2.054c-.071-.107-.125-.232-.125-.357s.036-.25.125-.357c.357-.482 2.357-2.643 2.875-2.643.143 0 .268.054.375.125l2.054 1.607a9.216 9.216 0 0 1 1.375-.571c.089-.893.179-1.875.411-2.75a.57.57 0 0 1 .536-.429h3.321c.25 0 .5.196.536.446l.411 2.732c.464.143.911.339 1.339.554l2.107-1.589a.547.547 0 0 1 .357-.125c.143 0 .268.054.375.143.464.429 2.571 2.357 2.571 2.857a.61.61 0 0 1-.125.339c-.518.696-1.054 1.339-1.554 2.036.232.482.446.964.607 1.464l2.714.411c.25.054.429.286.429.536zm11.429 9.518v2.5c0 .268-2.304.518-2.661.554a4.332 4.332 0 0 1-.536.929c.161.357.911 2.143.911 2.464 0 .054-.018.089-.071.125-.214.125-2.125 1.268-2.214 1.268-.232 0-1.571-1.786-1.75-2.054-.179.018-.357.036-.536.036s-.357-.018-.536-.036c-.179.268-1.518 2.054-1.75 2.054-.089 0-2-1.143-2.214-1.268a.153.153 0 0 1-.071-.125c0-.304.75-2.107.911-2.464a4.35 4.35 0 0 1-.536-.929c-.357-.036-2.661-.286-2.661-.554v-2.5c0-.268 2.304-.518 2.661-.554.143-.321.321-.643.536-.929-.161-.357-.911-2.161-.911-2.464 0-.036.018-.089.071-.125.214-.107 2.125-1.25 2.214-1.25.232 0 1.571 1.768 1.75 2.036.179-.018.357-.036.536-.036s.357.018.536.036c.5-.696 1.036-1.393 1.643-2l.107-.036c.089 0 2 1.125 2.214 1.25a.153.153 0 0 1 .071.125c0 .321-.75 2.107-.911 2.464.214.286.393.607.536.929.357.036 2.661.286 2.661.554zm0-18.286v2.5c0 .268-2.304.518-2.661.554a4.332 4.332 0 0 1-.536.929c.161.357.911 2.143.911 2.464 0 .054-.018.089-.071.125-.214.125-2.125 1.268-2.214 1.268-.232 0-1.571-1.786-1.75-2.054-.179.018-.357.036-.536.036s-.357-.018-.536-.036c-.179.268-1.518 2.054-1.75 2.054-.089 0-2-1.143-2.214-1.268a.153.153 0 0 1-.071-.125c0-.304.75-2.107.911-2.464a4.35 4.35 0 0 1-.536-.929c-.357-.036-2.661-.286-2.661-.554v-2.5c0-.268 2.304-.518 2.661-.554.143-.321.321-.643.536-.929-.161-.357-.911-2.161-.911-2.464 0-.036.018-.089.071-.125.214-.107 2.125-1.25 2.214-1.25.232 0 1.571 1.768 1.75 2.036.179-.018.357-.036.536-.036s.357.018.536.036c.5-.696 1.036-1.393 1.643-2l.107-.036c.089 0 2 1.125 2.214 1.25A.153.153 0 0 1 32 1.66c0 .321-.75 2.107-.911 2.464.214.286.393.607.536.929.357.036 2.661.286 2.661.554z"></path></svg></svg></g></svg></g></g><g opacity="1"><g id="ad47fca4-0b3b-4719-9de9-775467f48c40" transform="translate(0 0)"><svg x="540" y="1215" overflow="visible"><g transform="scale(0.8944271909999159) "><circle cx="0" cy="0" fill="#000000" r="23"></circle><svg width="30" height="32" x="-15" y="-16" style="fill: rgb(255, 255, 255);"><svg xmlns="http://www.w3.org/2000/svg" width="30" height="32" viewBox="0 0 30 32"><path d="M26 21.714c0-.464-.179-.893-.5-1.214l-3.714-3.714a1.733 1.733 0 0 0-1.214-.5c-.518 0-.929.196-1.286.571.589.589 1.286 1.089 1.286 2 0 .946-.768 1.714-1.714 1.714-.911 0-1.411-.696-2-1.286-.375.357-.589.768-.589 1.304 0 .446.179.893.5 1.214l3.679 3.696c.321.321.768.482 1.214.482s.893-.161 1.214-.464l2.625-2.607c.321-.321.5-.75.5-1.196zM13.446 9.125c0-.446-.179-.893-.5-1.214L9.267 4.215c-.321-.321-.768-.5-1.214-.5s-.893.179-1.214.482L4.214 6.804a1.702 1.702 0 0 0 0 2.41l3.714 3.714c.321.321.768.482 1.214.482.518 0 .929-.179 1.286-.554-.589-.589-1.286-1.089-1.286-2 0-.946.768-1.714 1.714-1.714.911 0 1.411.696 2 1.286.375-.357.589-.768.589-1.304zm15.983 12.589a5.11 5.11 0 0 1-1.518 3.625l-2.625 2.607a5.106 5.106 0 0 1-3.625 1.482 5.077 5.077 0 0 1-3.643-1.518l-3.679-3.696a5.106 5.106 0 0 1-1.482-3.625c0-1.411.571-2.75 1.571-3.732l-1.571-1.571a5.187 5.187 0 0 1-3.714 1.571 5.165 5.165 0 0 1-3.643-1.5l-3.714-3.714A5.09 5.09 0 0 1 .286 8a5.11 5.11 0 0 1 1.518-3.625l2.625-2.607A5.106 5.106 0 0 1 8.054.286c1.375 0 2.679.536 3.643 1.518L15.376 5.5a5.106 5.106 0 0 1 1.482 3.625c0 1.411-.571 2.75-1.571 3.732l1.571 1.571a5.187 5.187 0 0 1 3.714-1.571c1.357 0 2.679.536 3.643 1.5l3.714 3.714a5.09 5.09 0 0 1 1.5 3.643z"></path></svg></svg></g></svg></g></g><g opacity="1"><g id="0c2848c8-a255-453c-be15-a00293c6bcaa" transform="translate(0 0)"><svg x="270" y="1215" overflow="visible"><g transform="scale(0.8944271909999159) "><circle cx="0" cy="0" fill="#000000" r="23"></circle><svg width="30" height="32" x="-15" y="-16" style="fill: rgb(255, 255, 255);"><svg xmlns="http://www.w3.org/2000/svg" width="30" height="32" viewBox="0 0 30 32"><path d="M26 21.714c0-.464-.179-.893-.5-1.214l-3.714-3.714a1.733 1.733 0 0 0-1.214-.5c-.518 0-.929.196-1.286.571.589.589 1.286 1.089 1.286 2 0 .946-.768 1.714-1.714 1.714-.911 0-1.411-.696-2-1.286-.375.357-.589.768-.589 1.304 0 .446.179.893.5 1.214l3.679 3.696c.321.321.768.482 1.214.482s.893-.161 1.214-.464l2.625-2.607c.321-.321.5-.75.5-1.196zM13.446 9.125c0-.446-.179-.893-.5-1.214L9.267 4.215c-.321-.321-.768-.5-1.214-.5s-.893.179-1.214.482L4.214 6.804a1.702 1.702 0 0 0 0 2.41l3.714 3.714c.321.321.768.482 1.214.482.518 0 .929-.179 1.286-.554-.589-.589-1.286-1.089-1.286-2 0-.946.768-1.714 1.714-1.714.911 0 1.411.696 2 1.286.375-.357.589-.768.589-1.304zm15.983 12.589a5.11 5.11 0 0 1-1.518 3.625l-2.625 2.607a5.106 5.106 0 0 1-3.625 1.482 5.077 5.077 0 0 1-3.643-1.518l-3.679-3.696a5.106 5.106 0 0 1-1.482-3.625c0-1.411.571-2.75 1.571-3.732l-1.571-1.571a5.187 5.187 0 0 1-3.714 1.571 5.165 5.165 0 0 1-3.643-1.5l-3.714-3.714A5.09 5.09 0 0 1 .286 8a5.11 5.11 0 0 1 1.518-3.625l2.625-2.607A5.106 5.106 0 0 1 8.054.286c1.375 0 2.679.536 3.643 1.518L15.376 5.5a5.106 5.106 0 0 1 1.482 3.625c0 1.411-.571 2.75-1.571 3.732l1.571 1.571a5.187 5.187 0 0 1 3.714-1.571c1.357 0 2.679.536 3.643 1.5l3.714 3.714a5.09 5.09 0 0 1 1.5 3.643z"></path></svg></svg></g></svg></g></g></g><g pointer-events="auto"><g opacity="1"><g id="1a1201be-3c44-4e4f-8f02-2ce60ec8827d" transform="translate(0 0)"><svg x="540" y="1058" overflow="visible"><text stroke="#ffffff" stroke-width="4" font-family="Open Sans" y="30.799999999999997" font-size="20pt" fill="#000000" font-weight="bold" transform="" xml:space="preserve"><tspan x="8" dy="0">port 80</tspan></text><text font-family="Open Sans" y="30.799999999999997" font-size="20pt" fill="#000000" font-weight="bold" transform="" xml:space="preserve"><tspan x="8" dy="0">port 80</tspan></text></svg></g></g><g opacity="1"><g id="c938d1dc-62e8-4aac-9f70-7e3abc7dc3bf" transform="translate(0 0)"><svg x="585" y="720" overflow="visible"><text stroke="#ffffff" stroke-width="4" font-family="Open Sans" y="30.799999999999997" font-size="20pt" fill="#000000" font-weight="bold" transform="" xml:space="preserve"><tspan x="8" dy="0">/    =&gt;    http://127.0.0.1:5000</tspan></text><text font-family="Open Sans" y="30.799999999999997" font-size="20pt" fill="#000000" font-weight="bold" transform="" xml:space="preserve"><tspan x="8" dy="0">/    =&gt;    http://127.0.0.1:5000</tspan></text></svg></g></g><g opacity="1"><g id="8c458497-29d7-4ce2-a839-76ec5a5c8a8a" transform="translate(0 0)"><svg x="360" y="855" overflow="visible"><text stroke="#ffffff" stroke-width="4" font-family="Open Sans" y="23.96" font-size="14pt" fill="#3f51b5" font-weight="bold" transform="" xml:space="preserve"><tspan x="8" dy="0">Allow requests from public on port 80</tspan></text><text font-family="Open Sans" y="23.96" font-size="14pt" fill="#3f51b5" font-weight="bold" transform="" xml:space="preserve"><tspan x="8" dy="0">Allow requests from public on port 80</tspan></text></svg></g></g><g opacity="1"><g id="6c541c76-cdf5-46f5-bdd0-371a55f5052d"><svg x="608" y="945" overflow="visible"><text stroke="#ffffff" stroke-width="4" font-family="Open Sans" y="36.5" font-size="25pt" fill="#f5b720" font-weight="bold" transform="" xml:space="preserve"><tspan x="8" dy="0">ELB</tspan></text><text font-family="Open Sans" y="36.5" font-size="25pt" fill="#f5b720" font-weight="bold" transform="" xml:space="preserve"><tspan x="8" dy="0">ELB</tspan></text></svg></g></g><g opacity="1"><g id="c412a476-c29f-417c-b741-98bf56a78d16"><svg x="585" y="675" overflow="visible"><text stroke="#ffffff" stroke-width="4" font-family="Open Sans" y="36.5" font-size="25pt" fill="#f5b720" font-weight="bold" transform="" xml:space="preserve"><tspan x="8" dy="0">Reverse-proxy</tspan></text><text font-family="Open Sans" y="36.5" font-size="25pt" fill="#f5b720" font-weight="bold" transform="" xml:space="preserve"><tspan x="8" dy="0">Reverse-proxy</tspan></text></svg></g></g><g opacity="1"><g id="e9e0da4e-7631-4bfc-8c18-56e828587562" transform="translate(0 0)"><svg x="428" y="563" overflow="visible"><text stroke="#ffffff" stroke-width="4" font-family="Open Sans" y="30.799999999999997" font-size="20pt" fill="#000000" font-weight="bold" transform="" xml:space="preserve"><tspan x="8" dy="0">ports 5000 (+ 80)</tspan></text><text font-family="Open Sans" y="30.799999999999997" font-size="20pt" fill="#000000" font-weight="bold" transform="" xml:space="preserve"><tspan x="8" dy="0">ports 5000 (+ 80)</tspan></text></svg></g></g><g opacity="1"><g id="b8045d06-d318-4f5f-8758-2c2b30dd082a" transform="translate(0 0)"><svg x="540" y="203" overflow="visible"><text stroke="#ffffff" stroke-width="4" font-family="Open Sans" y="30.799999999999997" font-size="20pt" fill="#000000" font-weight="bold" transform="" xml:space="preserve"><tspan x="8" dy="0">port 6379</tspan></text><text font-family="Open Sans" y="30.799999999999997" font-size="20pt" fill="#000000" font-weight="bold" transform="" xml:space="preserve"><tspan x="8" dy="0">port 6379</tspan></text></svg></g></g><g opacity="1"><g id="ab515dfd-5855-460d-9e73-4249345b61cd"><svg x="585" y="68" overflow="visible"><text stroke="#ffffff" stroke-width="4" font-family="Open Sans" y="36.5" font-size="25pt" fill="#f5b720" font-weight="bold" transform="" xml:space="preserve"><tspan x="8" dy="0">Redis cache</tspan></text><text font-family="Open Sans" y="36.5" font-size="25pt" fill="#f5b720" font-weight="bold" transform="" xml:space="preserve"><tspan x="8" dy="0">Redis cache</tspan></text></svg></g></g><g opacity="1"><g id="ca073ab9-953a-4b9c-98fa-485626e46e52"><svg x="585" y="1260" overflow="visible"><text stroke="#ffffff" stroke-width="4" font-family="Open Sans" y="36.5" font-size="25pt" fill="#4caf50" font-weight="bold" transform="" xml:space="preserve"><tspan x="8" dy="0">WEB access</tspan></text><text font-family="Open Sans" y="36.5" font-size="25pt" fill="#4caf50" font-weight="bold" transform="" xml:space="preserve"><tspan x="8" dy="0">WEB access</tspan></text></svg></g></g><g opacity="1"><g id="61747fdf-197e-44be-98a4-a3e893673840"><svg x="45" y="1260" overflow="visible"><text stroke="#ffffff" stroke-width="4" font-family="Open Sans" y="36.5" font-size="25pt" fill="#b43a13" font-weight="bold" transform="" xml:space="preserve"><tspan x="8" dy="0">SSH access</tspan></text><text font-family="Open Sans" y="36.5" font-size="25pt" fill="#b43a13" font-weight="bold" transform="" xml:space="preserve"><tspan x="8" dy="0">SSH access</tspan></text></svg></g></g><g opacity="1"><g id="1d5505a8-56aa-420d-bc65-adf2a8bac2ff" transform="translate(0 0)"><svg x="270" y="698" overflow="visible"><text stroke="#ffffff" stroke-width="4" font-family="Open Sans" y="30.799999999999997" font-size="20pt" fill="#000000" font-weight="bold" transform="" xml:space="preserve"><tspan x="8" dy="0">port 22</tspan></text><text font-family="Open Sans" y="30.799999999999997" font-size="20pt" fill="#000000" font-weight="bold" transform="" xml:space="preserve"><tspan x="8" dy="0">port 22</tspan></text></svg></g></g><g opacity="1"><g id="7c3cb3c1-126e-4cda-a4bc-da8ef8e5bab5"><svg x="428" y="360" overflow="visible"><text stroke="#ffffff" stroke-width="4" font-family="Open Sans" y="36.5" font-size="25pt" fill="#f5b720" font-weight="bold" transform="" xml:space="preserve"><tspan x="8" dy="0">Auto Scaling</tspan></text><text font-family="Open Sans" y="36.5" font-size="25pt" fill="#f5b720" font-weight="bold" transform="" xml:space="preserve"><tspan x="8" dy="0">Auto Scaling</tspan></text></svg></g></g></g><g></g></g></svg>