<?xml version="1.0" standalone="no"?>
<!DOCTYPE svg PUBLIC "-//W3C//DTD SVG 1.1//EN"
  "http://www.w3.org/Graphics/SVG/1.1/DTD/svg11.dtd">
<svg version="1.1" xmlns="http://www.w3.org/2000/svg" xmlns:xlink="http://www.w3.org/1999/xlink" width="1792" height="1063" viewBox="-992 -32 1792 1063" id="ccdiagram"><filter id="grayscale"><feColorMatrix type="matrix" values="0.3333 0.3333 0.3333 0 0 0.3333 0.3333 0.3333 0 0 0.3333 0.3333 0.3333 0 0 0 0 0 1 0"></feColorMatrix></filter><defs><style type="text/css">@import url('https://fonts.googleapis.com/css?family=Open+Sans:400,700|Inconsolata:400');</style></defs><g><g style="pointer-events: none;"><g><pattern id="gridPatternMinor" x="0" y="37" width="128" height="74" patternUnits="userSpaceOnUse"><path d="M 0 0 L 128 74" stroke="#eee" stroke-width="1"></path><path d="M 128 0 L 0 74" stroke="#eee" stroke-width="1"></path></pattern><polygon points="0 0, 768 444, -192 999, -960 555" fill="url(#gridPatternMinor)"></polygon></g><polygon points="-960 555, -960 565, -192 1009, -192 999" stroke-linejoin="round" stroke="#54626f" stroke-width="1" fill="#f9f9f9"></polygon><polygon points="-192 1009, 768 454, 768 444, -192 999" stroke-linejoin="round" stroke="#54626f" stroke-width="1" fill="#e2e2e2"></polygon></g><g pointer-events="auto"><g opacity="1"><g><g><polygon points="-224 322, 224 581, -96 766, -544 507" fill="#000000" opacity="0.2"></polygon><polygon points="-224 315, 224 574, -96 759, -544 500" fill="#e6e7e8" stroke-width="0" stroke="#818181"></polygon></g></g></g></g><g style="pointer-events: none;"><g><pattern id="gridPatternMajor" x="0" y="37" width="128" height="74" patternUnits="userSpaceOnUse"><path d="M 64 0 L 128 37 64 74 0 37 z" stroke="#54626f" stroke-width="1" fill="none"></path></pattern><polygon points="0 0, 768 444, -192 999, -960 555" fill="url(#gridPatternMajor)"></polygon></g></g><g pointer-events="auto"></g><g></g><g pointer-events="auto"></g><g></g><g pointer-events="auto"></g><g pointer-events="none"></g><g pointer-events="auto"><g><g cursor="cell"><line x1="344" y1="310" x2="189" y2="323" stroke="red" stroke-width="8" opacity="0"></line><line x1="344" y1="310" x2="189" y2="323" stroke="#000000" stroke-width="2" stroke-linecap="round"></line><polygon points="176 324, 202 328, 193 322, 199 315, 176 324" stroke-linejoin="round" fill="#000000" stroke="#000000" stroke-width="1"></polygon></g></g><g><g cursor="cell"><line x1="-80" y1="472" x2="102" y2="366" stroke="red" stroke-width="8" opacity="0"></line><line x1="-80" y1="472" x2="102" y2="366" stroke="#000000" stroke-width="2" stroke-linecap="round"></line><polygon points="112 361, 86 366, 100 368, 103 376, 112 361" stroke-linejoin="round" fill="#000000" stroke="#000000" stroke-width="1"></polygon></g></g><g><g cursor="cell"><line x1="-464" y1="694" x2="-250" y2="570" stroke="red" stroke-width="8" opacity="0"></line><line x1="-464" y1="694" x2="-250" y2="570" stroke="#000000" stroke-width="2" stroke-linecap="round"></line><polygon points="-240 564, -266 570, -252 571, -249 579, -240 564" stroke-linejoin="round" fill="#000000" stroke="#000000" stroke-width="1"></polygon></g></g><g><g cursor="cell"><line x1="-240" y1="564" x2="-90" y2="477" stroke="red" stroke-width="8" opacity="0"></line><line x1="-240" y1="564" x2="-90" y2="477" stroke="#000000" stroke-width="2" stroke-linecap="round"></line><polygon points="-80 472, -106 477, -92 479, -89 487, -80 472" stroke-linejoin="round" fill="#000000" stroke="#000000" stroke-width="1"></polygon></g></g></g><g pointer-events="auto"><g opacity="1"><g id="7a26c78a-3673-4f56-bdf5-39d7431f5fda" transform="translate(0 0)"><svg x="344" y="256" height="95.068" width="63" viewBox="0 0 16.669 25.153"><path d="M16.668 22.903q0 1.64-.864 2.091-.865.451-2.297-.376L3.161 18.645q-1.433-.827-2.297-2.276Q.001 14.921 0 13.28q0-.723.042-1.39.042-.666.166-1.394.124-.727.313-1.302.19-.575.51-1.039.319-.464.733-.683.414-.22 1.012-.147.598.073 1.32.49.107.06.497.58.391.52.882 1.165.491.646 1.279 1.394.788.75 1.58 1.207.793.458 1.58.618.788.161 1.28.083.49-.079.881-.147.39-.069.497-.007.722.416 1.32 1.035.598.619 1.013 1.315.414.697.734 1.531t.509 1.627q.19.793.313 1.664.124.872.166 1.586.042.713.042 1.438zM12.88 8.51q0 2.173-1.332 2.942-1.332.769-3.214-.318-1.882-1.086-3.214-3.393Q3.79 5.434 3.79 3.26q0-2.173 1.331-2.942 1.332-.77 3.214.317t3.214 3.394q1.332 2.306 1.332 4.48z" fill="#000" stroke="#000000" stroke-width=".268"></path></svg></g></g><g opacity="1"><g id="d0ecdc5c-aae6-4d4b-8455-63dbc68b6a5c" transform="translate(0 0)"><svg x="80" y="268" height="111" width="128" fill-rule="evenodd"><path d="M64 74v37l64-37V37L64 74z" fill="#b8b8bb"></path><path d="M0 37v37l64 37V74L0 37z" fill="#d2d2d4"></path><path d="M0 37L64 0l64 37-64 37L0 37z" fill="#ececed"></path><path d="M64 73.407l62.111-35.86.514.889-62.487 36.078h-.276L.743 38.072l.514-.89L64 73.407z" fill="#83838a"></path><path d="M63.486 74h1.027v36h-1.027z" fill="#83838a"></path><path d="M128 37v37l-64 37L0 74V37L64 0l64 37zM2.054 38.185v34.63L64 108.627l61.946-35.812v-34.63L64 2.373 2.054 38.185z" fill="#000000"></path></svg><svg x="138" y="287" width="54" height="36" style="overflow: visible; cursor: default;"><rect transform="matrix(0.707 0.409 -0.707 0.409 0 0)" width="54" height="36" rx="5" ry="5" fill="#4286c5"></rect><text transform="matrix(0.707 0.409 -0.707 0.409 0 0)" font-family="Open Sans" text-anchor="middle" x="50%" font-weight="normal" font-size="20pt" y="80%" fill="#ffffff"><tspan>T2</tspan></text></svg></g></g></g><g pointer-events="auto"></g><g pointer-events="auto"><g opacity="1"><g id="e7994c97-e819-45c5-8449-5cde0fd5ec87" transform="translate(0 0)"><svg x="-224" y="278" overflow="visible"><g transform="scale(1.25) "><circle cx="0" cy="0" fill="transparent" r="40"></circle><svg width="100" height="100" x="-50" y="-50"><svg id="Layer_1" data-name="Layer 1" xmlns="http://www.w3.org/2000/svg" width="100" height="100" viewBox="0 0 100 100"><g><path fill="#b7ca9d" d="M49.33 60.65l-33.97 4.22 9.54 14.38L60.21 62l-10.88-1.35z"></path><path fill="#3c4929" d="M49.33 40.27l33.96-4.22-9.54-14.38-35.31 17.24 10.89 1.36z"></path><path fill="#4b612c" d="M38.44 38.91l35.31-5.72V21.67l-35.31 9.55v7.69zM15.36 55.26l33.97 3.4 33.32-8.2-33.32-8.2-33.97 3.39v9.61z"></path><path fill="#759c3e" d="M83.29 55.26l-33.96 3.4v-16.4l33.96 3.39v9.61z"></path><path fill="#3c4929" d="M15.36 36.05L49.33 9.46l18.08 21.82-35.57 6.82-16.48-2.05z"></path><path fill="#4b612c" d="M15.36 26.44L49.33 9.46v16.4L15.36 36.05v-9.61z"></path><path fill="#759c3e" d="M73.75 21.67l9.54 4.77v9.61l-9.54-2.86V21.67zM60.21 62L24.9 67.73v11.52l35.31-9.56V62zM67.41 31.28l-18.08-5.42V9.46l18.08 9.04v12.78z"></path><path fill="#b7ca9d" d="M83.29 64.87L49.33 91.46 31.25 69.63l35.56-6.81 16.48 2.05z"></path><path fill="#759c3e" d="M83.29 74.47L49.33 91.46v-16.4l33.96-10.19v9.6z"></path><path fill="#4b612c" d="M31.25 69.63l18.08 5.43v16.4l-18.08-9.04V69.63zM24.9 79.25l-9.54-4.78v-9.6l9.54 2.86v11.52z"></path></g></svg></svg></g></svg></g></g><g opacity="1"><g id="76501171-3280-4530-a794-63f55c442278" transform="translate(0 0)"><svg x="-240" y="564" overflow="visible"><g transform=" "><circle cx="0" cy="0" fill="transparent" r="40"></circle><svg width="100" height="100" x="-50" y="-50" style=""><svg id="Layer_1" data-name="Layer 1" xmlns="http://www.w3.org/2000/svg" width="100" height="100" viewBox="0 0 100 100"><g><path fill="#b7ca9d" d="M29.62 60.37l-4.89-.83-8.68.77 4.27 15.1 9.3-15.04z"></path><path fill="#4b612c" d="M16.05 43.13v13.71l4.39.63L29 50.43l-8.56-7.92-4.39.62z"></path><path fill="#759c3e" d="M20.44 61.3l9.18-.93v13.74l-9.18.66-3.54-7.16 3.54-6.31z"></path><path fill="#3c4929" d="M24.85 40.47l4.77-.8-9.18-15.22-4.39 15.24 8.8.78z"></path><path fill="#759c3e" d="M20.44 23.77l9.18 2.16v13.74l-9.18-.92V23.77zM20.44 42.54l9.18.61V56.9l-9.18.62V42.54z"></path><path fill="#3c4929" d="M29.62 35.59l7.02-1.64-9.62-13.13-6.58 13.48 9.18 1.29z"></path><path fill="#759c3e" d="M27.02 20.5l9.62 2.7v10.75l-9.62-1.62V20.5z"></path><path fill="#b7ca9d" d="M36.64 66.03l-7-1.64-9.2 1.3 6.58 13.86 9.62-13.52z"></path><path fill="#759c3e" d="M27.02 67.67l9.62-1.62v10.79l-9.62 2.71-8.7-6.75 8.7-5.13z"></path><path fill="#3c4929" d="M83.88 39.68l-8.8.78-11.73-1.96 9.56-18.04 10.97 19.22z"></path><path fill="#4b612c" d="M20.44 65.69v-4.43l-4.39-.95v13.71l10.97 5.49V67.66l-6.58-1.97z"></path><path fill="#b7ca9d" d="M83.9 60.32l-8.8-.78-11.75 1.97 9.56 17.67L83.9 60.32z"></path><path fill="#4b612c" d="M72.91 20.46l-9.56 2.69V38.5l9.56-1.15 10.4-6.28-10.4-10.61zM72.91 41.47l-9.56.78V57.6l9.56.76 10.4-8.08-10.4-8.81zM72.91 62.73l-9.56-1.16v15.35l9.56 2.7 9.62-10.97-9.62-5.92z"></path><path fill="#3c4929" d="M39.91 16.05l-9.61 15.3 9.78 1.79 9.91-2.31-10.08-14.78z"></path><path fill="#3c4929" d="M69.64 36.63l-9.79 1.28-19.94-3.34L49.99 9.1l19.65 27.53z"></path><path fill="#4b612c" d="M49.99 61.68l18.87-11.65-18.87-11.74-10.08 1.44v20.52l10.08 1.43z"></path><path fill="#759c3e" d="M49.99 38.29v23.39l19.65-2.8V41.09l-19.65-2.8z"></path><path fill="#b7ca9d" d="M69.64 63.38l-9.79-1.29-19.94 3.35 10.08 25.55 19.65-27.61z"></path><path fill="#b7ca9d" d="M49.93 69.14l-9.78-2.29-9.81 1.8 9.2 16.73 10.39-16.24z"></path><path fill="#4b612c" d="M30.29 68.64v12.51L49.99 91l18.37-18.2-18.37-5.19-10.08-2.17v6.08l-9.62-2.88zM27.02 32.33V20.5l-10.97 5.48v13.71l4.39-.94V34.3l6.58-1.97zM39.91 28.47v6.1l10.08-2.16 18.14-5.19-18.14-18.2-19.7 9.84v12.49l9.62-2.88z"></path><path fill="#759c3e" d="M49.99 9v23.41l19.65 4.22V18.82L49.99 9zM83.95 39.7V25.98l-11.04-5.52v16.87l11.04 2.37zM83.95 56.84v-13.7l-11.04-1.58v16.86l11.04-1.58zM49.99 67.61v23.38l19.65-9.83V63.38l-19.65 4.23zM83.95 74.01v-13.7l-11.04 2.37v16.85l11.04-5.52z"></path></g></svg></svg></g></svg></g></g><g opacity="1"><g id="fd93a678-edf1-4eef-96d6-af52343d58c0" transform="translate(0 0)"><svg x="-80" y="472" overflow="visible"><g transform=" "><circle cx="0" cy="0" fill="transparent" r="40"></circle><svg width="100" height="100" x="-50" y="-50" style=""><svg id="Layer_1" data-name="Layer 1" xmlns="http://www.w3.org/2000/svg" width="100" height="100" viewBox="0 0 100 100"><g><path fill="#759c3e" d="M60.75 69.03l-35.16 9.72V21.2l35.16 9.51v38.32z"></path><path fill="#4b612c" d="M25.59 78.75l-9.52-4.78V25.96l9.52-4.76v57.55zM31.93 41.94l18.06-2.28v20.52l-18.06-2.26V41.94z"></path><path fill="#3c4929" d="M83.93 38l-16.47 1.7-35.53-5.65L49.99 9l33.94 29z"></path><path fill="#4b612c" d="M31.93 18.03L49.99 9v20.55l-18.06 4.5V18.03z"></path><path fill="#b7ca9d" d="M83.93 61.97l-16.47-1.71-35.53 5.68 18.06 24.83 33.94-28.8z"></path><path fill="#4b612c" d="M31.93 81.93L49.99 91V70.45l-18.06-4.51v15.99z"></path><path fill="#759c3e" d="M83.93 38l-33.94-8.45V9l33.94 16.97V38zM83.93 55.95l-33.94 4.23V39.63l33.94 4.28v12.04zM83.93 74L49.99 91V70.45l33.94-8.48V74z"></path></g></svg></svg></g></svg></g></g><g opacity="1"><g id="0bcf0234-829a-4052-ac6f-eea70dfbf492" transform="translate(0 0)"><svg x="-464" y="694" overflow="visible"><g transform="scale(1.7469281074217107) matrix(0.707 0.409 -0.707 0.409 0 0)"><circle cx="0" cy="0" fill="#000000" r="23"></circle><svg width="27" height="32" x="-13.5" y="-16" style="fill: rgb(255, 255, 255);"><svg xmlns="http://www.w3.org/2000/svg" width="27" height="32" viewBox="0 0 27 32"><path d="M13.714 2.286c7.571 0 13.714 6.143 13.714 13.714 0 6.054-3.929 11.196-9.375 13.018-.696.125-.946-.304-.946-.661 0-.446.018-1.929.018-3.768 0-1.286-.429-2.107-.929-2.536 3.054-.339 6.268-1.5 6.268-6.768 0-1.5-.536-2.714-1.411-3.679.143-.357.607-1.75-.143-3.643-1.143-.357-3.768 1.411-3.768 1.411a12.895 12.895 0 0 0-6.858 0S7.659 7.606 6.516 7.963c-.75 1.893-.286 3.286-.143 3.643-.875.964-1.411 2.179-1.411 3.679 0 5.25 3.196 6.429 6.25 6.768-.393.357-.75.964-.875 1.839-.786.357-2.786.964-3.982-1.143-.75-1.304-2.107-1.411-2.107-1.411-1.339-.018-.089.839-.089.839.893.411 1.518 2 1.518 2 .804 2.446 4.625 1.625 4.625 1.625 0 1.143.018 2.214.018 2.554 0 .357-.25.786-.946.661-5.446-1.821-9.375-6.964-9.375-13.018 0-7.571 6.143-13.714 13.714-13.714zM5.196 21.982c.036-.071-.018-.161-.125-.214-.107-.036-.196-.018-.232.036-.036.071.018.161.125.214.089.054.196.036.232-.036zm.554.607c.071-.054.054-.179-.036-.286-.089-.089-.214-.125-.286-.054-.071.054-.054.179.036.286.089.089.214.125.286.054zm.536.804c.089-.071.089-.214 0-.339-.071-.125-.214-.179-.304-.107-.089.054-.089.196 0 .321s.232.179.304.125zm.75.75c.071-.071.036-.232-.071-.339-.125-.125-.286-.143-.357-.054-.089.071-.054.232.071.339.125.125.286.143.357.054zm1.018.446c.036-.107-.071-.232-.232-.286-.143-.036-.304.018-.339.125s.071.232.232.268c.143.054.304 0 .339-.107zm1.125.09c0-.125-.143-.214-.304-.196-.161 0-.286.089-.286.196 0 .125.125.214.304.196.161 0 .286-.089.286-.196zm1.035-.179c-.018-.107-.161-.179-.321-.161-.161.036-.268.143-.25.268.018.107.161.179.321.143s.268-.143.25-.25z"></path></svg></svg></g></svg></g></g></g><g pointer-events="auto"><g opacity="1"><g id="1bc974ec-f452-4b70-9dc7-ec5e8c4e2506" transform="translate(0 0)"><svg x="-480" y="481" overflow="visible"><text stroke="#ffffff" stroke-width="4" font-family="Open Sans" y="46.76" font-size="34pt" fill="#f5b720" font-weight="bold" transform="matrix(0.707 -0.409 0.707 0.409 0 0)" xml:space="preserve"><tspan x="8" dy="0">CODE PIPELINE</tspan></text><text font-family="Open Sans" y="46.76" font-size="34pt" fill="#f5b720" font-weight="bold" transform="matrix(0.707 -0.409 0.707 0.409 0 0)" xml:space="preserve"><tspan x="8" dy="0">CODE PIPELINE</tspan></text></svg></g></g><g opacity="1"><g id="f63c147d-d626-4e59-a559-6da91dd6f53c" transform="translate(0 0)"><svg x="-144" y="601" overflow="visible"><text stroke="#ffffff" stroke-width="4" font-family="Open Sans" y="46.76" font-size="34pt" fill="#f5b720" font-weight="bold" transform="matrix(0.707 0.409 -0.707 0.409 0 0)" xml:space="preserve"><tspan x="8" dy="0">BUILD</tspan></text><text font-family="Open Sans" y="46.76" font-size="34pt" fill="#f5b720" font-weight="bold" transform="matrix(0.707 0.409 -0.707 0.409 0 0)" xml:space="preserve"><tspan x="8" dy="0">BUILD</tspan></text></svg></g></g><g opacity="1"><g id="e7153fe9-ccc2-4173-a46b-e9856588eab3" transform="translate(0 0)"><svg x="16" y="509" overflow="visible"><text stroke="#ffffff" stroke-width="4" font-family="Open Sans" y="46.76" font-size="34pt" fill="#f5b720" font-weight="bold" transform="matrix(0.707 0.409 -0.707 0.409 0 0)" xml:space="preserve"><tspan x="8" dy="0">DEPLOY</tspan></text><text font-family="Open Sans" y="46.76" font-size="34pt" fill="#f5b720" font-weight="bold" transform="matrix(0.707 0.409 -0.707 0.409 0 0)" xml:space="preserve"><tspan x="8" dy="0">DEPLOY</tspan></text></svg></g></g><g opacity="1"><g id="08d21777-e2f5-4c18-9ac2-1de0d70206f6" transform="translate(0 0)"><svg x="-400" y="712" overflow="visible"><text stroke="#ffffff" stroke-width="4" font-family="Open Sans" y="36.5" font-size="25pt" fill="#f5b720" font-weight="bold" transform="matrix(0.707 0.409 -0.707 0.409 0 0)" xml:space="preserve"><tspan x="8" dy="0">COMMIT</tspan></text><text font-family="Open Sans" y="36.5" font-size="25pt" fill="#f5b720" font-weight="bold" transform="matrix(0.707 0.409 -0.707 0.409 0 0)" xml:space="preserve"><tspan x="8" dy="0">COMMIT</tspan></text></svg></g></g></g><g></g></g></svg>