<?xml version="1.0" standalone="no"?>
<!DOCTYPE svg PUBLIC "-//W3C//DTD SVG 1.1//EN"
  "http://www.w3.org/Graphics/SVG/1.1/DTD/svg11.dtd">
<svg version="1.1" xmlns="http://www.w3.org/2000/svg" xmlns:xlink="http://www.w3.org/1999/xlink" width="1920" height="1080" viewBox="-716.8888888888889 -32 2513.777777777778 1414" id="ccdiagram"><filter id="grayscale"><feColorMatrix type="matrix" values="0.3333 0.3333 0.3333 0 0 0.3333 0.3333 0.3333 0 0 0.3333 0.3333 0.3333 0 0 0 0 0 1 0"></feColorMatrix></filter><defs><style type="text/css">@import url('https://fonts.googleapis.com/css?family=Open+Sans:400,700|Inconsolata:400');</style></defs><g><g pointer-events="auto"><g opacity="1"><g><g><polygon points="90 135, 990 135, 1035 180, 1035 1260, 990 1305, 90 1305, 45 1260, 45 180" fill="#ffffff" stroke-width="2" stroke="#818181"></polygon><polygon points="90 180, 990 180, 990 1260, 90 1260" fill="#e6e7e8" stroke-width="0" stroke="#818181"></polygon></g></g></g><g opacity="1"><g><g><polygon points="225 495, 855 495, 900 540, 900 990, 855 1035, 225 1035, 180 990, 180 540" fill="#ffffff" stroke-width="2" stroke="#818181"></polygon><polygon points="225 540, 855 540, 855 990, 225 990" fill="#e6e7e8" stroke-width="0" stroke="#818181"></polygon></g></g></g><g opacity="1"><g><g><polygon points="225 180, 855 180, 900 225, 900 428, 855 473, 225 473, 180 428, 180 225" fill="#ffffff" stroke-width="2" stroke="#818181"></polygon><polygon points="225 225, 855 225, 855 428, 225 428" fill="#e6e7e8" stroke-width="0" stroke="#818181"></polygon></g></g></g></g><g pointer-events="auto"></g><g></g><g pointer-events="auto"></g><g></g><g pointer-events="auto"></g><g pointer-events="none"></g><g pointer-events="auto"><g><g cursor="cell"><line x1="540" y1="113" x2="540" y2="257" stroke="red" stroke-width="8" opacity="0"></line><line x1="540" y1="113" x2="540" y2="257" stroke="#000000" stroke-width="2" stroke-linecap="round"></line><polygon points="540 270, 551 246, 540 252, 529 246, 540 270" stroke-linejoin="round" fill="#000000" stroke="#000000" stroke-width="1"></polygon></g></g><g><g cursor="cell"><line x1="540" y1="630" x2="540" y2="374" stroke="red" stroke-width="8" opacity="0"></line><line x1="540" y1="630" x2="540" y2="374" stroke="#000000" stroke-width="2" stroke-linecap="round"></line><polygon points="540 360, 529 384, 540 378, 551 384, 540 360" stroke-linejoin="round" fill="#000000" stroke="#000000" stroke-width="1"></polygon></g></g><g><g cursor="cell"><line x1="540" y1="1170" x2="540" y2="869" stroke="red" stroke-width="8" opacity="0"></line><line x1="540" y1="1170" x2="540" y2="869" stroke="#000000" stroke-width="2" stroke-linecap="round"></line><polygon points="540 855, 529 879, 540 873, 551 879, 540 855" stroke-linejoin="round" fill="#000000" stroke="#000000" stroke-width="1"></polygon></g></g><g><g cursor="cell"><line x1="540" y1="855" x2="540" y2="644" stroke="red" stroke-width="8" opacity="0"></line><line x1="540" y1="855" x2="540" y2="644" stroke="#000000" stroke-width="2" stroke-linecap="round"></line><polygon points="540 630, 529 654, 540 648, 551 654, 540 630" stroke-linejoin="round" fill="#000000" stroke="#000000" stroke-width="1"></polygon></g></g></g><g pointer-events="auto"><g opacity="1"><g id="7a26c78a-3673-4f56-bdf5-39d7431f5fda" transform="translate(0 0)"><svg x="495" y="23" height="90" id="svg13" width="90" version="1.1"><defs id="defs4"></defs><g id="Working" transform="matrix(1.9149 0 0 1.9149 -2.872 -2.852)"><circle id="path819" cx="25.03" cy="13.644" fill="#000" fill-opacity="1" opacity=".05" r="10.787" stroke="none" stroke-opacity="1" stroke-width=".522"></circle><path class="cls-1" id="path8-6" d="M47.5 48.44h-45a1 1 0 0 1-1-1v-3a22.73 22.73 0 0 1 17.36-22.1 1.06 1.06 0 0 1 .72.09 11.29 11.29 0 0 0 10.82 0 1 1 0 0 1 .71-.09A22.73 22.73 0 0 1 48.5 44.45v3a1 1 0 0 1-1 .99z" fill="#000" fill-opacity="1" opacity=".05" stroke-width="1"></path><path class="cls-1" id="path8" d="M47.5 48.44h-45a1 1 0 0 1-1-1v-3a22.73 22.73 0 0 1 17.36-22.1 1.06 1.06 0 0 1 .72.09 11.29 11.29 0 0 0 10.82 0 1 1 0 0 1 .71-.09A22.73 22.73 0 0 1 48.5 44.45v3a1 1 0 0 1-1 .99zm-44-2h43v-2A20.71 20.71 0 0 0 31 24.39a13.51 13.51 0 0 1-6 1.43 13.21 13.21 0 0 1-6-1.43A20.72 20.72 0 0 0 3.5 44.45z" fill="#000" fill-opacity="1"></path><path class="cls-1" id="path10" d="M25 25.75a12.18 12.18 0 0 1-5.9-1.5 12.13 12.13 0 1 1 18.06-10.58 12 12 0 0 1-6.32 10.58 12.38 12.38 0 0 1-5.84 1.5zm0-22.19a10.08 10.08 0 0 0-5 18.94 10.33 10.33 0 0 0 9.85 0A10.08 10.08 0 0 0 25 3.56z" fill="#000" fill-opacity="1"></path></g></svg></g></g><g opacity="1"><g id="d0ecdc5c-aae6-4d4b-8455-63dbc68b6a5c" transform="translate(0 0)"><svg x="495" y="270" height="90" id="svg51" width="90" version="1.1"><defs id="defs4"></defs><g id="Working" transform="translate(0 40)"><g id="g883" transform="matrix(1.83333 0 0 1.83333 -.833 -40.833)"><path class="cls-1" id="path8" d="M44.31 44.31H5.69V5.69h38.62zm-36.62-2h34.62V7.69H7.69z" fill="#d86613" fill-opacity="1"></path><path class="cls-1" id="rect10" d="M11.21 1h2v5.69h-2z" fill="#d86613" fill-opacity="1"></path><path class="cls-1" id="rect12" d="M17.48 1h2v5.69h-2z" fill="#d86613" fill-opacity="1"></path><path class="cls-1" id="rect14" d="M23.76 1h2v5.69h-2z" fill="#d86613" fill-opacity="1"></path><path class="cls-1" id="rect16" d="M30.04 1h2v5.69h-2z" fill="#d86613" fill-opacity="1"></path><path class="cls-1" id="rect18" d="M36.32 1h2v5.69h-2z" fill="#d86613" fill-opacity="1"></path><path class="cls-1" id="rect20" d="M11.21 43.31h2V49h-2z" fill="#d86613" fill-opacity="1"></path><path class="cls-1" id="rect22" d="M17.48 43.31h2V49h-2z" fill="#d86613" fill-opacity="1"></path><path class="cls-1" id="rect24" d="M23.76 43.31h2V49h-2z" fill="#d86613" fill-opacity="1"></path><path class="cls-1" id="rect26" d="M30.04 43.31h2V49h-2z" fill="#d86613" fill-opacity="1"></path><path class="cls-1" id="rect28" d="M36.32 43.31h2V49h-2z" fill="#d86613" fill-opacity="1"></path><path class="cls-1" id="rect30" d="M43.31 11.45H49v2h-5.69z" fill="#d86613" fill-opacity="1"></path><path class="cls-1" id="rect32" d="M43.31 17.72H49v2h-5.69z" fill="#d86613" fill-opacity="1"></path><path class="cls-1" id="rect34" d="M43.31 24H49v2h-5.69z" fill="#d86613" fill-opacity="1"></path><path class="cls-1" id="rect36" d="M43.31 30.28H49v2h-5.69z" fill="#d86613" fill-opacity="1"></path><path class="cls-1" id="rect38" d="M43.31 36.55H49v2h-5.69z" fill="#d86613" fill-opacity="1"></path><path class="cls-1" id="rect40" d="M1 11.45h5.69v2H1z" fill="#d86613" fill-opacity="1"></path><path class="cls-1" id="rect42" d="M1 17.72h5.69v2H1z" fill="#d86613" fill-opacity="1"></path><path class="cls-1" id="rect44" d="M1 24h5.69v2H1z" fill="#d86613" fill-opacity="1"></path><path class="cls-1" id="rect46" d="M1 30.28h5.69v2H1z" fill="#d86613" fill-opacity="1"></path><path class="cls-1" id="rect48" d="M1 36.55h5.69v2H1z" fill="#d86613" fill-opacity="1"></path><path id="rect836" d="M7.69 7.69h34.62v34.62H7.69z" fill="#d86613" fill-opacity="1" opacity=".05" stroke="#d86613" stroke-opacity="0" stroke-width=".545"></path></g></g></svg><svg x="513" y="297" width="54" height="36" style="overflow: visible; cursor: default;"><text transform="" font-family="Open Sans" text-anchor="middle" x="50%" font-weight="bold" font-size="18pt" y="75%" fill="#d86613"><tspan>T2</tspan></text></svg></g></g></g><g pointer-events="auto"></g><g pointer-events="auto"><g opacity="1"><g id="e7994c97-e819-45c5-8449-5cde0fd5ec87" transform="translate(0 0)"><svg x="180" y="495" overflow="visible"><g transform="scale(1.7469281074217107) "><circle cx="0" cy="0" fill="transparent" r="40"></circle><svg width="100" height="100" x="-50" y="-50"><svg id="Layer_1" data-name="Layer 1" xmlns="http://www.w3.org/2000/svg" width="100" height="100" viewBox="0 0 100 100"><g><path fill="#b7ca9d" d="M49.33 60.65l-33.97 4.22 9.54 14.38L60.21 62l-10.88-1.35z"></path><path fill="#3c4929" d="M49.33 40.27l33.96-4.22-9.54-14.38-35.31 17.24 10.89 1.36z"></path><path fill="#4b612c" d="M38.44 38.91l35.31-5.72V21.67l-35.31 9.55v7.69zM15.36 55.26l33.97 3.4 33.32-8.2-33.32-8.2-33.97 3.39v9.61z"></path><path fill="#759c3e" d="M83.29 55.26l-33.96 3.4v-16.4l33.96 3.39v9.61z"></path><path fill="#3c4929" d="M15.36 36.05L49.33 9.46l18.08 21.82-35.57 6.82-16.48-2.05z"></path><path fill="#4b612c" d="M15.36 26.44L49.33 9.46v16.4L15.36 36.05v-9.61z"></path><path fill="#759c3e" d="M73.75 21.67l9.54 4.77v9.61l-9.54-2.86V21.67zM60.21 62L24.9 67.73v11.52l35.31-9.56V62zM67.41 31.28l-18.08-5.42V9.46l18.08 9.04v12.78z"></path><path fill="#b7ca9d" d="M83.29 64.87L49.33 91.46 31.25 69.63l35.56-6.81 16.48 2.05z"></path><path fill="#759c3e" d="M83.29 74.47L49.33 91.46v-16.4l33.96-10.19v9.6z"></path><path fill="#4b612c" d="M31.25 69.63l18.08 5.43v16.4l-18.08-9.04V69.63zM24.9 79.25l-9.54-4.78v-9.6l9.54 2.86v11.52z"></path></g></svg></svg></g></svg></g></g><g opacity="1"><g id="76501171-3280-4530-a794-63f55c442278" transform="translate(0 0)"><svg x="540" y="855" overflow="visible"><g transform="scale(1.3975424859373686) "><circle cx="0" cy="0" fill="transparent" r="40"></circle><svg width="100" height="100" x="-50" y="-50"><svg id="Layer_1" data-name="Layer 1" xmlns="http://www.w3.org/2000/svg" width="100" height="100" viewBox="0 0 100 100"><g><path fill="#b7ca9d" d="M29.62 60.37l-4.89-.83-8.68.77 4.27 15.1 9.3-15.04z"></path><path fill="#4b612c" d="M16.05 43.13v13.71l4.39.63L29 50.43l-8.56-7.92-4.39.62z"></path><path fill="#759c3e" d="M20.44 61.3l9.18-.93v13.74l-9.18.66-3.54-7.16 3.54-6.31z"></path><path fill="#3c4929" d="M24.85 40.47l4.77-.8-9.18-15.22-4.39 15.24 8.8.78z"></path><path fill="#759c3e" d="M20.44 23.77l9.18 2.16v13.74l-9.18-.92V23.77zM20.44 42.54l9.18.61V56.9l-9.18.62V42.54z"></path><path fill="#3c4929" d="M29.62 35.59l7.02-1.64-9.62-13.13-6.58 13.48 9.18 1.29z"></path><path fill="#759c3e" d="M27.02 20.5l9.62 2.7v10.75l-9.62-1.62V20.5z"></path><path fill="#b7ca9d" d="M36.64 66.03l-7-1.64-9.2 1.3 6.58 13.86 9.62-13.52z"></path><path fill="#759c3e" d="M27.02 67.67l9.62-1.62v10.79l-9.62 2.71-8.7-6.75 8.7-5.13z"></path><path fill="#3c4929" d="M83.88 39.68l-8.8.78-11.73-1.96 9.56-18.04 10.97 19.22z"></path><path fill="#4b612c" d="M20.44 65.69v-4.43l-4.39-.95v13.71l10.97 5.49V67.66l-6.58-1.97z"></path><path fill="#b7ca9d" d="M83.9 60.32l-8.8-.78-11.75 1.97 9.56 17.67L83.9 60.32z"></path><path fill="#4b612c" d="M72.91 20.46l-9.56 2.69V38.5l9.56-1.15 10.4-6.28-10.4-10.61zM72.91 41.47l-9.56.78V57.6l9.56.76 10.4-8.08-10.4-8.81zM72.91 62.73l-9.56-1.16v15.35l9.56 2.7 9.62-10.97-9.62-5.92z"></path><path fill="#3c4929" d="M39.91 16.05l-9.61 15.3 9.78 1.79 9.91-2.31-10.08-14.78z"></path><path fill="#3c4929" d="M69.64 36.63l-9.79 1.28-19.94-3.34L49.99 9.1l19.65 27.53z"></path><path fill="#4b612c" d="M49.99 61.68l18.87-11.65-18.87-11.74-10.08 1.44v20.52l10.08 1.43z"></path><path fill="#759c3e" d="M49.99 38.29v23.39l19.65-2.8V41.09l-19.65-2.8z"></path><path fill="#b7ca9d" d="M69.64 63.38l-9.79-1.29-19.94 3.35 10.08 25.55 19.65-27.61z"></path><path fill="#b7ca9d" d="M49.93 69.14l-9.78-2.29-9.81 1.8 9.2 16.73 10.39-16.24z"></path><path fill="#4b612c" d="M30.29 68.64v12.51L49.99 91l18.37-18.2-18.37-5.19-10.08-2.17v6.08l-9.62-2.88zM27.02 32.33V20.5l-10.97 5.48v13.71l4.39-.94V34.3l6.58-1.97zM39.91 28.47v6.1l10.08-2.16 18.14-5.19-18.14-18.2-19.7 9.84v12.49l9.62-2.88z"></path><path fill="#759c3e" d="M49.99 9v23.41l19.65 4.22V18.82L49.99 9zM83.95 39.7V25.98l-11.04-5.52v16.87l11.04 2.37zM83.95 56.84v-13.7l-11.04-1.58v16.86l11.04-1.58zM49.99 67.61v23.38l19.65-9.83V63.38l-19.65 4.23zM83.95 74.01v-13.7l-11.04 2.37v16.85l11.04-5.52z"></path></g></svg></svg></g></svg></g></g><g opacity="1"><g id="fd93a678-edf1-4eef-96d6-af52343d58c0" transform="translate(0 0)"><svg x="540" y="630" overflow="visible"><g transform="scale(1.3975424859373686) "><circle cx="0" cy="0" fill="transparent" r="40"></circle><svg width="100" height="100" x="-50" y="-50"><svg id="Layer_1" data-name="Layer 1" xmlns="http://www.w3.org/2000/svg" width="100" height="100" viewBox="0 0 100 100"><g><path fill="#759c3e" d="M60.75 69.03l-35.16 9.72V21.2l35.16 9.51v38.32z"></path><path fill="#4b612c" d="M25.59 78.75l-9.52-4.78V25.96l9.52-4.76v57.55zM31.93 41.94l18.06-2.28v20.52l-18.06-2.26V41.94z"></path><path fill="#3c4929" d="M83.93 38l-16.47 1.7-35.53-5.65L49.99 9l33.94 29z"></path><path fill="#4b612c" d="M31.93 18.03L49.99 9v20.55l-18.06 4.5V18.03z"></path><path fill="#b7ca9d" d="M83.93 61.97l-16.47-1.71-35.53 5.68 18.06 24.83 33.94-28.8z"></path><path fill="#4b612c" d="M31.93 81.93L49.99 91V70.45l-18.06-4.51v15.99z"></path><path fill="#759c3e" d="M83.93 38l-33.94-8.45V9l33.94 16.97V38zM83.93 55.95l-33.94 4.23V39.63l33.94 4.28v12.04zM83.93 74L49.99 91V70.45l33.94-8.48V74z"></path></g></svg></svg></g></svg></g></g><g opacity="1"><g id="0bcf0234-829a-4052-ac6f-eea70dfbf492" transform="translate(0 0)"><svg x="540" y="1170" overflow="visible"><g transform="scale(1.7469281074217107) "><circle cx="0" cy="0" fill="#000000" r="23"></circle><svg width="27" height="32" x="-13.5" y="-16" style="fill: rgb(255, 255, 255);"><svg xmlns="http://www.w3.org/2000/svg" width="27" height="32" viewBox="0 0 27 32"><path d="M13.714 2.286c7.571 0 13.714 6.143 13.714 13.714 0 6.054-3.929 11.196-9.375 13.018-.696.125-.946-.304-.946-.661 0-.446.018-1.929.018-3.768 0-1.286-.429-2.107-.929-2.536 3.054-.339 6.268-1.5 6.268-6.768 0-1.5-.536-2.714-1.411-3.679.143-.357.607-1.75-.143-3.643-1.143-.357-3.768 1.411-3.768 1.411a12.895 12.895 0 0 0-6.858 0S7.659 7.606 6.516 7.963c-.75 1.893-.286 3.286-.143 3.643-.875.964-1.411 2.179-1.411 3.679 0 5.25 3.196 6.429 6.25 6.768-.393.357-.75.964-.875 1.839-.786.357-2.786.964-3.982-1.143-.75-1.304-2.107-1.411-2.107-1.411-1.339-.018-.089.839-.089.839.893.411 1.518 2 1.518 2 .804 2.446 4.625 1.625 4.625 1.625 0 1.143.018 2.214.018 2.554 0 .357-.25.786-.946.661-5.446-1.821-9.375-6.964-9.375-13.018 0-7.571 6.143-13.714 13.714-13.714zM5.196 21.982c.036-.071-.018-.161-.125-.214-.107-.036-.196-.018-.232.036-.036.071.018.161.125.214.089.054.196.036.232-.036zm.554.607c.071-.054.054-.179-.036-.286-.089-.089-.214-.125-.286-.054-.071.054-.054.179.036.286.089.089.214.125.286.054zm.536.804c.089-.071.089-.214 0-.339-.071-.125-.214-.179-.304-.107-.089.054-.089.196 0 .321s.232.179.304.125zm.75.75c.071-.071.036-.232-.071-.339-.125-.125-.286-.143-.357-.054-.089.071-.054.232.071.339.125.125.286.143.357.054zm1.018.446c.036-.107-.071-.232-.232-.286-.143-.036-.304.018-.339.125s.071.232.232.268c.143.054.304 0 .339-.107zm1.125.09c0-.125-.143-.214-.304-.196-.161 0-.286.089-.286.196 0 .125.125.214.304.196.161 0 .286-.089.286-.196zm1.035-.179c-.018-.107-.161-.179-.321-.161-.161.036-.268.143-.25.268.018.107.161.179.321.143s.268-.143.25-.25z"></path></svg></svg></g></svg></g></g></g><g pointer-events="auto"><g opacity="1"><g id="1bc974ec-f452-4b70-9dc7-ec5e8c4e2506" transform="translate(0 0)"><svg x="248" y="923" overflow="visible"><text stroke="#ffffff" stroke-width="4" font-family="Open Sans" y="46.76" font-size="34pt" fill="#f5b720" font-weight="bold" transform="rotate(270)" xml:space="preserve"><tspan x="8" dy="0">CODE PIPELINE</tspan></text><text font-family="Open Sans" y="46.76" font-size="34pt" fill="#f5b720" font-weight="bold" transform="rotate(270)" xml:space="preserve"><tspan x="8" dy="0">CODE PIPELINE</tspan></text></svg></g></g><g opacity="1"><g id="f63c147d-d626-4e59-a559-6da91dd6f53c" transform="translate(0 0)"><svg x="630" y="833" overflow="visible"><text stroke="#ffffff" stroke-width="4" font-family="Open Sans" y="46.76" font-size="34pt" fill="#f5b720" font-weight="bold" transform="" xml:space="preserve"><tspan x="8" dy="0">BUILD</tspan></text><text font-family="Open Sans" y="46.76" font-size="34pt" fill="#f5b720" font-weight="bold" transform="" xml:space="preserve"><tspan x="8" dy="0">BUILD</tspan></text></svg></g></g><g opacity="1"><g id="e7153fe9-ccc2-4173-a46b-e9856588eab3" transform="translate(0 0)"><svg x="630" y="608" overflow="visible"><text stroke="#ffffff" stroke-width="4" font-family="Open Sans" y="46.76" font-size="34pt" fill="#f5b720" font-weight="bold" transform="" xml:space="preserve"><tspan x="8" dy="0">DEPLOY</tspan></text><text font-family="Open Sans" y="46.76" font-size="34pt" fill="#f5b720" font-weight="bold" transform="" xml:space="preserve"><tspan x="8" dy="0">DEPLOY</tspan></text></svg></g></g><g opacity="1"><g id="08d21777-e2f5-4c18-9ac2-1de0d70206f6" transform="translate(0 0)"><svg x="608" y="1148" overflow="visible"><text stroke="#ffffff" stroke-width="4" font-family="Open Sans" y="46.76" font-size="34pt" fill="#f5b720" font-weight="bold" transform="" xml:space="preserve"><tspan x="8" dy="0">COMMIT</tspan></text><text font-family="Open Sans" y="46.76" font-size="34pt" fill="#f5b720" font-weight="bold" transform="" xml:space="preserve"><tspan x="8" dy="0">COMMIT</tspan></text></svg></g></g><g opacity="1"><g id="6d5e267a-ba3b-4e88-8b75-ae897804c814" transform="translate(0 0)"><svg x="113" y="1170" overflow="visible"><text stroke="#ffffff" stroke-width="4" font-family="Open Sans" y="59.3" font-size="45pt" fill="#f5b720" font-weight="bold" transform="" xml:space="preserve"><tspan x="8" dy="0">AWS</tspan></text><text font-family="Open Sans" y="59.3" font-size="45pt" fill="#f5b720" font-weight="bold" transform="" xml:space="preserve"><tspan x="8" dy="0">AWS</tspan></text></svg></g></g><g opacity="1"><g id="b8299f8a-3c56-4c6f-9589-dd52263d698a" transform="translate(0 0)"><svg x="248" y="450" overflow="visible"><text stroke="#ffffff" stroke-width="4" font-family="Open Sans" y="30.799999999999997" font-size="20pt" fill="#f5b720" font-weight="bold" transform="rotate(270)" xml:space="preserve"><tspan x="8" dy="0">AutoScaling Group</tspan></text><text font-family="Open Sans" y="30.799999999999997" font-size="20pt" fill="#f5b720" font-weight="bold" transform="rotate(270)" xml:space="preserve"><tspan x="8" dy="0">AutoScaling Group</tspan></text></svg></g></g></g><g></g></g></svg>