<?xml version="1.0" standalone="no"?>
<!DOCTYPE svg PUBLIC "-//W3C//DTD SVG 1.1//EN"
  "http://www.w3.org/Graphics/SVG/1.1/DTD/svg11.dtd">
<svg version="1.1" xmlns="http://www.w3.org/2000/svg" xmlns:xlink="http://www.w3.org/1999/xlink" width="1280" height="720" viewBox="-716.8888888888887 -32 2513.7777777777774 1414" id="ccdiagram"><filter id="grayscale"><feColorMatrix type="matrix" values="0.3333 0.3333 0.3333 0 0 0.3333 0.3333 0.3333 0 0 0.3333 0.3333 0.3333 0 0 0 0 0 1 0"></feColorMatrix></filter><defs><style type="text/css">@import url('https://fonts.googleapis.com/css?family=Open+Sans:400,700|Inconsolata:400');</style></defs><g><g pointer-events="auto"><g opacity="1"><g><g><polygon points="180 180, 900 180, 945 225, 945 833, 900 878, 180 878, 135 833, 135 225" fill="#f5b720" stroke-width="2" stroke="#818181"></polygon><polygon points="180 225, 900 225, 900 833, 180 833" fill="#e6e7e8" stroke-width="0" stroke="#818181"></polygon></g></g></g></g><g pointer-events="auto"></g><g></g><g pointer-events="auto"></g><g></g><g pointer-events="auto"><g opacity="1"><g id="53799891-f862-496c-9b06-b4f513ee19cc"><svg x="283" y="1148" overflow="visible"><polygon points="0 0, 508 0, 508 90, 0 90" fill="#f5b720"></polygon><polygon points="0 0, 508 0, 508 90, 0 90" fill="none" stroke-width="20" stroke="#f5b720" opacity="1"></polygon><g cursor="nwse-resize"><polygon points="0 0, -27 0, -27 -45, -72 45, -27 135, -27 90, 0 90" fill="#f5b720"></polygon><polygon points="508 0, 535 0, 535 -45, 580 45, 535 135, 535 90, 508 90" fill="#f5b720"></polygon></g></svg></g></g></g><g pointer-events="none"></g><g pointer-events="auto"><g><g cursor="cell"><line x1="540" y1="518" x2="540" y2="707" stroke="red" stroke-width="8" opacity="0"></line><line x1="540" y1="518" x2="540" y2="707" stroke="#000000" stroke-width="2" stroke-linecap="round"></line><polygon points="540 720, 551 696, 540 702, 529 696, 540 720" stroke-linejoin="round" fill="#000000" stroke="#000000" stroke-width="1"></polygon></g></g><g><g cursor="cell"><line x1="540" y1="315" x2="540" y2="504" stroke="red" stroke-width="8" opacity="0"></line><line x1="540" y1="315" x2="540" y2="504" stroke="#000000" stroke-width="2" stroke-linecap="round"></line><polygon points="540 518, 551 493, 540 500, 529 493, 540 518" stroke-linejoin="round" fill="#000000" stroke="#000000" stroke-width="1"></polygon></g></g><g><g cursor="cell"><line x1="540" y1="990" x2="720" y2="990" stroke="red" stroke-width="8" opacity="0"></line><line x1="540" y1="990" x2="720" y2="990" stroke="#000000" stroke-width="2" stroke-linecap="round"></line></g></g><g><g cursor="cell"><line x1="720" y1="990" x2="720" y2="1179" stroke="red" stroke-width="8" opacity="0"></line><line x1="720" y1="990" x2="720" y2="1179" stroke="#000000" stroke-width="2" stroke-linecap="round"></line><polygon points="720 1193, 731 1168, 720 1175, 709 1168, 720 1193" stroke-linejoin="round" fill="#000000" stroke="#000000" stroke-width="1"></polygon></g></g><g><g cursor="cell"><line x1="540" y1="990" x2="360" y2="990" stroke="red" stroke-width="8" opacity="0"></line><line x1="540" y1="990" x2="360" y2="990" stroke="#000000" stroke-width="2" stroke-linecap="round"></line></g></g><g><g cursor="cell"><line x1="360" y1="990" x2="360" y2="1179" stroke="red" stroke-width="8" opacity="0"></line><line x1="360" y1="990" x2="360" y2="1179" stroke="#000000" stroke-width="2" stroke-linecap="round"></line><polygon points="360 1193, 371 1168, 360 1175, 349 1168, 360 1193" stroke-linejoin="round" fill="#000000" stroke="#000000" stroke-width="1"></polygon></g></g><g><g cursor="cell"><line x1="540" y1="720" x2="540" y2="909" stroke="red" stroke-width="8" opacity="0"></line><line x1="540" y1="720" x2="540" y2="909" stroke="#000000" stroke-width="2" stroke-linecap="round"></line><polygon points="540 923, 551 898, 540 905, 529 898, 540 923" stroke-linejoin="round" fill="#000000" stroke="#000000" stroke-width="1"></polygon></g></g></g><g pointer-events="auto"></g><g pointer-events="auto"></g><g pointer-events="auto"><g opacity="1"><g id="e7994c97-e819-45c5-8449-5cde0fd5ec87" transform="translate(0 0)"><svg x="540" y="90" overflow="visible"><g transform="scale(1.3975424859373686) "><circle cx="0" cy="0" fill="transparent" r="40"></circle><svg width="100" height="100" x="-50" y="-50" style=""><svg id="Layer_1" data-name="Layer 1" xmlns="http://www.w3.org/2000/svg" width="100" height="100" viewBox="0 0 100 100"><g><path fill="#b7ca9d" d="M49.33 60.65l-33.97 4.22 9.54 14.38L60.21 62l-10.88-1.35z"></path><path fill="#3c4929" d="M49.33 40.27l33.96-4.22-9.54-14.38-35.31 17.24 10.89 1.36z"></path><path fill="#4b612c" d="M38.44 38.91l35.31-5.72V21.67l-35.31 9.55v7.69zM15.36 55.26l33.97 3.4 33.32-8.2-33.32-8.2-33.97 3.39v9.61z"></path><path fill="#759c3e" d="M83.29 55.26l-33.96 3.4v-16.4l33.96 3.39v9.61z"></path><path fill="#3c4929" d="M15.36 36.05L49.33 9.46l18.08 21.82-35.57 6.82-16.48-2.05z"></path><path fill="#4b612c" d="M15.36 26.44L49.33 9.46v16.4L15.36 36.05v-9.61z"></path><path fill="#759c3e" d="M73.75 21.67l9.54 4.77v9.61l-9.54-2.86V21.67zM60.21 62L24.9 67.73v11.52l35.31-9.56V62zM67.41 31.28l-18.08-5.42V9.46l18.08 9.04v12.78z"></path><path fill="#b7ca9d" d="M83.29 64.87L49.33 91.46 31.25 69.63l35.56-6.81 16.48 2.05z"></path><path fill="#759c3e" d="M83.29 74.47L49.33 91.46v-16.4l33.96-10.19v9.6z"></path><path fill="#4b612c" d="M31.25 69.63l18.08 5.43v16.4l-18.08-9.04V69.63zM24.9 79.25l-9.54-4.78v-9.6l9.54 2.86v11.52z"></path></g></svg></svg></g></svg></g></g><g opacity="1"><g id="76501171-3280-4530-a794-63f55c442278" transform="translate(0 0)"><svg x="540" y="518" overflow="visible"><g transform="scale(1.3975424859373686) "><circle cx="0" cy="0" fill="transparent" r="40"></circle><svg width="100" height="100" x="-50" y="-50" style=""><svg id="Layer_1" data-name="Layer 1" xmlns="http://www.w3.org/2000/svg" width="100" height="100" viewBox="0 0 100 100"><g><path fill="#b7ca9d" d="M29.62 60.37l-4.89-.83-8.68.77 4.27 15.1 9.3-15.04z"></path><path fill="#4b612c" d="M16.05 43.13v13.71l4.39.63L29 50.43l-8.56-7.92-4.39.62z"></path><path fill="#759c3e" d="M20.44 61.3l9.18-.93v13.74l-9.18.66-3.54-7.16 3.54-6.31z"></path><path fill="#3c4929" d="M24.85 40.47l4.77-.8-9.18-15.22-4.39 15.24 8.8.78z"></path><path fill="#759c3e" d="M20.44 23.77l9.18 2.16v13.74l-9.18-.92V23.77zM20.44 42.54l9.18.61V56.9l-9.18.62V42.54z"></path><path fill="#3c4929" d="M29.62 35.59l7.02-1.64-9.62-13.13-6.58 13.48 9.18 1.29z"></path><path fill="#759c3e" d="M27.02 20.5l9.62 2.7v10.75l-9.62-1.62V20.5z"></path><path fill="#b7ca9d" d="M36.64 66.03l-7-1.64-9.2 1.3 6.58 13.86 9.62-13.52z"></path><path fill="#759c3e" d="M27.02 67.67l9.62-1.62v10.79l-9.62 2.71-8.7-6.75 8.7-5.13z"></path><path fill="#3c4929" d="M83.88 39.68l-8.8.78-11.73-1.96 9.56-18.04 10.97 19.22z"></path><path fill="#4b612c" d="M20.44 65.69v-4.43l-4.39-.95v13.71l10.97 5.49V67.66l-6.58-1.97z"></path><path fill="#b7ca9d" d="M83.9 60.32l-8.8-.78-11.75 1.97 9.56 17.67L83.9 60.32z"></path><path fill="#4b612c" d="M72.91 20.46l-9.56 2.69V38.5l9.56-1.15 10.4-6.28-10.4-10.61zM72.91 41.47l-9.56.78V57.6l9.56.76 10.4-8.08-10.4-8.81zM72.91 62.73l-9.56-1.16v15.35l9.56 2.7 9.62-10.97-9.62-5.92z"></path><path fill="#3c4929" d="M39.91 16.05l-9.61 15.3 9.78 1.79 9.91-2.31-10.08-14.78z"></path><path fill="#3c4929" d="M69.64 36.63l-9.79 1.28-19.94-3.34L49.99 9.1l19.65 27.53z"></path><path fill="#4b612c" d="M49.99 61.68l18.87-11.65-18.87-11.74-10.08 1.44v20.52l10.08 1.43z"></path><path fill="#759c3e" d="M49.99 38.29v23.39l19.65-2.8V41.09l-19.65-2.8z"></path><path fill="#b7ca9d" d="M69.64 63.38l-9.79-1.29-19.94 3.35 10.08 25.55 19.65-27.61z"></path><path fill="#b7ca9d" d="M49.93 69.14l-9.78-2.29-9.81 1.8 9.2 16.73 10.39-16.24z"></path><path fill="#4b612c" d="M30.29 68.64v12.51L49.99 91l18.37-18.2-18.37-5.19-10.08-2.17v6.08l-9.62-2.88zM27.02 32.33V20.5l-10.97 5.48v13.71l4.39-.94V34.3l6.58-1.97zM39.91 28.47v6.1l10.08-2.16 18.14-5.19-18.14-18.2-19.7 9.84v12.49l9.62-2.88z"></path><path fill="#759c3e" d="M49.99 9v23.41l19.65 4.22V18.82L49.99 9zM83.95 39.7V25.98l-11.04-5.52v16.87l11.04 2.37zM83.95 56.84v-13.7l-11.04-1.58v16.86l11.04-1.58zM49.99 67.61v23.38l19.65-9.83V63.38l-19.65 4.23zM83.95 74.01v-13.7l-11.04 2.37v16.85l11.04-5.52z"></path></g></svg></svg></g></svg></g></g><g opacity="1"><g id="fd93a678-edf1-4eef-96d6-af52343d58c0" transform="translate(0 0)"><svg x="540" y="720" overflow="visible"><g transform="scale(1.3975424859373686) "><circle cx="0" cy="0" fill="transparent" r="40"></circle><svg width="100" height="100" x="-50" y="-50" style=""><svg id="Layer_1" data-name="Layer 1" xmlns="http://www.w3.org/2000/svg" width="100" height="100" viewBox="0 0 100 100"><g><path fill="#759c3e" d="M60.75 69.03l-35.16 9.72V21.2l35.16 9.51v38.32z"></path><path fill="#4b612c" d="M25.59 78.75l-9.52-4.78V25.96l9.52-4.76v57.55zM31.93 41.94l18.06-2.28v20.52l-18.06-2.26V41.94z"></path><path fill="#3c4929" d="M83.93 38l-16.47 1.7-35.53-5.65L49.99 9l33.94 29z"></path><path fill="#4b612c" d="M31.93 18.03L49.99 9v20.55l-18.06 4.5V18.03z"></path><path fill="#b7ca9d" d="M83.93 61.97l-16.47-1.71-35.53 5.68 18.06 24.83 33.94-28.8z"></path><path fill="#4b612c" d="M31.93 81.93L49.99 91V70.45l-18.06-4.51v15.99z"></path><path fill="#759c3e" d="M83.93 38l-33.94-8.45V9l33.94 16.97V38zM83.93 55.95l-33.94 4.23V39.63l33.94 4.28v12.04zM83.93 74L49.99 91V70.45l33.94-8.48V74z"></path></g></svg></svg></g></svg></g></g><g opacity="1"><g id="0bcf0234-829a-4052-ac6f-eea70dfbf492" transform="translate(0 0)"><svg x="540" y="315" overflow="visible"><g transform="scale(2.1836601342771385) "><circle cx="0" cy="0" fill="#000000" r="23"></circle><svg width="27" height="32" x="-13.5" y="-16" style="fill: rgb(255, 255, 255);"><svg xmlns="http://www.w3.org/2000/svg" width="27" height="32" viewBox="0 0 27 32"><path d="M13.714 2.286c7.571 0 13.714 6.143 13.714 13.714 0 6.054-3.929 11.196-9.375 13.018-.696.125-.946-.304-.946-.661 0-.446.018-1.929.018-3.768 0-1.286-.429-2.107-.929-2.536 3.054-.339 6.268-1.5 6.268-6.768 0-1.5-.536-2.714-1.411-3.679.143-.357.607-1.75-.143-3.643-1.143-.357-3.768 1.411-3.768 1.411a12.895 12.895 0 0 0-6.858 0S7.659 7.606 6.516 7.963c-.75 1.893-.286 3.286-.143 3.643-.875.964-1.411 2.179-1.411 3.679 0 5.25 3.196 6.429 6.25 6.768-.393.357-.75.964-.875 1.839-.786.357-2.786.964-3.982-1.143-.75-1.304-2.107-1.411-2.107-1.411-1.339-.018-.089.839-.089.839.893.411 1.518 2 1.518 2 .804 2.446 4.625 1.625 4.625 1.625 0 1.143.018 2.214.018 2.554 0 .357-.25.786-.946.661-5.446-1.821-9.375-6.964-9.375-13.018 0-7.571 6.143-13.714 13.714-13.714zM5.196 21.982c.036-.071-.018-.161-.125-.214-.107-.036-.196-.018-.232.036-.036.071.018.161.125.214.089.054.196.036.232-.036zm.554.607c.071-.054.054-.179-.036-.286-.089-.089-.214-.125-.286-.054-.071.054-.054.179.036.286.089.089.214.125.286.054zm.536.804c.089-.071.089-.214 0-.339-.071-.125-.214-.179-.304-.107-.089.054-.089.196 0 .321s.232.179.304.125zm.75.75c.071-.071.036-.232-.071-.339-.125-.125-.286-.143-.357-.054-.089.071-.054.232.071.339.125.125.286.143.357.054zm1.018.446c.036-.107-.071-.232-.232-.286-.143-.036-.304.018-.339.125s.071.232.232.268c.143.054.304 0 .339-.107zm1.125.09c0-.125-.143-.214-.304-.196-.161 0-.286.089-.286.196 0 .125.125.214.304.196.161 0 .286-.089.286-.196zm1.035-.179c-.018-.107-.161-.179-.321-.161-.161.036-.268.143-.25.268.018.107.161.179.321.143s.268-.143.25-.25z"></path></svg></svg></g></svg></g></g><g opacity="1"><g id="e095eca9-a4da-4a00-b72f-1561a351c7cf" transform="translate(0 0)"><svg x="540" y="990" overflow="visible"><g transform="scale(1.7469281074217107) "><circle cx="0" cy="0" fill="transparent" r="40"></circle><svg width="100" height="100" x="-50" y="-50" style=""><svg id="Layer_1" data-name="Layer 1" xmlns="http://www.w3.org/2000/svg" width="100" height="100" viewBox="0 0 100 100"><g><path fill="#9d5025" d="M59.03 69.58V59.11l-4.46-4.45-2.94-2.95 2.94-2.94 4.46-4.46V33.59h5.23v-3.42L50 20.38l-14.26 9.79v3.42h5.23v10.72l4.46 4.46 2.94 2.94-2.94 2.95-4.46 4.45v10.47l-5.23-3.17v3.42L50 84.09l14.26-14.26v-3.42l-5.23 3.17z"></path><path fill="#9d5025" d="M41.71 51.71v-3.42l-14.26-4.02h-13v14.88h13v6.82l14.26-14.26zM85.55 44.27H72.56l-14.27 4.02v3.42l14.27 14.26v-6.82h12.99V44.27z"></path><path fill="#f58536" d="M59.03 66.16V55.69l-4.46-4.46-2.94-2.94 2.94-2.95 4.46-4.45V30.17h5.23L50 15.91 35.74 30.17h5.23v10.72l4.46 4.45 2.94 2.95-2.94 2.94-4.46 4.46v10.72h-5.23L50 80.67l14.26-14.26h-5.23v-.25z"></path><path fill="#f58536" d="M41.71 48.29L27.45 34.02v6.83h-13v14.88h13v6.82l14.26-14.26zM85.55 40.85H72.56v-6.83L58.29 48.29l14.27 14.26v-6.82h12.99V40.85z"></path></g></svg></svg></g></svg></g></g><g opacity="1"><g id="7d751546-3857-4e10-b7d9-1232ebf61bef" transform="translate(0 0)"><svg x="360" y="1193" overflow="visible"><g transform="scale(1.3975424859373686) "><circle cx="0" cy="0" fill="transparent" r="40"></circle><svg width="100" height="100" x="-50" y="-50" style=""><svg id="Layer_1" data-name="Layer 1" xmlns="http://www.w3.org/2000/svg" width="100" height="100" viewBox="0 0 100 100"><g><path fill="#9d5025" d="M19.33 24.17l-3.42 1.71v48.24l3.42 1.71 13.84-24.58-13.84-27.08z"></path><path fill="#f58536" d="M27.3 73.96l-7.97 1.87V24.17l7.97 1.82v47.97z"></path><path fill="#9d5025" d="M23.1 22.28l4.2-2.09 19.95 31.98L27.3 79.81l-4.2-2.09V22.28z"></path><path fill="#f58536" d="M37.24 77l-9.94 2.81V20.19l9.94 2.82V77z"></path><path fill="#9d5025" d="M31.98 17.84l5.26-2.63 29.43 40.46-29.43 29.12-5.26-2.63V17.84z"></path><path fill="#f58536" d="M49.99 80.13l-12.75 4.66V15.21l12.75 4.67v60.25z"></path><path fill="#9d5025" d="M43.19 12.24l6.8-3.4 31.84 43.49-31.84 38.83-6.8-3.4V12.24z"></path><path fill="#f58536" d="M84.09 74.11l-34.1 17.05V8.84l34.1 17.05v48.22z"></path></g></svg></svg></g></svg></g></g><g opacity="1"><g id="f3f73fd3-fd4b-48cd-b418-12d03107dbe1" transform="translate(0 0)"><svg x="720" y="1193" overflow="visible"><g transform="scale(1.3975424859373686) "><circle cx="0" cy="0" fill="transparent" r="40"></circle><svg width="100" height="100" x="-50" y="-50" style=""><svg id="Layer_1" data-name="Layer 1" xmlns="http://www.w3.org/2000/svg" width="100" height="100" viewBox="0 0 100 100"><g><path fill="#9d5025" d="M19.33 24.17l-3.42 1.71v48.24l3.42 1.71 13.84-24.58-13.84-27.08z"></path><path fill="#f58536" d="M27.3 73.96l-7.97 1.87V24.17l7.97 1.82v47.97z"></path><path fill="#9d5025" d="M23.1 22.28l4.2-2.09 19.95 31.98L27.3 79.81l-4.2-2.09V22.28z"></path><path fill="#f58536" d="M37.24 77l-9.94 2.81V20.19l9.94 2.82V77z"></path><path fill="#9d5025" d="M31.98 17.84l5.26-2.63 29.43 40.46-29.43 29.12-5.26-2.63V17.84z"></path><path fill="#f58536" d="M49.99 80.13l-12.75 4.66V15.21l12.75 4.67v60.25z"></path><path fill="#9d5025" d="M43.19 12.24l6.8-3.4 31.84 43.49-31.84 38.83-6.8-3.4V12.24z"></path><path fill="#f58536" d="M84.09 74.11l-34.1 17.05V8.84l34.1 17.05v48.22z"></path></g></svg></svg></g></svg></g></g></g><g pointer-events="auto"><g opacity="1"><g id="1bc974ec-f452-4b70-9dc7-ec5e8c4e2506" transform="translate(0 0)"><svg x="630" y="68" overflow="visible"><text stroke="#ffffff" stroke-width="4" font-family="Open Sans" y="36.5" font-size="25pt" fill="#f5b720" font-weight="bold" transform="" xml:space="preserve"><tspan x="8" dy="0">CodePipeline</tspan></text><text font-family="Open Sans" y="36.5" font-size="25pt" fill="#f5b720" font-weight="bold" transform="" xml:space="preserve"><tspan x="8" dy="0">CodePipeline</tspan></text></svg></g></g><g opacity="1"><g id="f63c147d-d626-4e59-a559-6da91dd6f53c" transform="translate(0 0)"><svg x="630" y="495" overflow="visible"><text stroke="#ffffff" stroke-width="4" font-family="Open Sans" y="36.5" font-size="25pt" fill="#f5b720" font-weight="bold" transform="" xml:space="preserve"><tspan x="8" dy="0">CodeBuild</tspan></text><text font-family="Open Sans" y="36.5" font-size="25pt" fill="#f5b720" font-weight="bold" transform="" xml:space="preserve"><tspan x="8" dy="0">CodeBuild</tspan></text></svg></g></g><g opacity="1"><g id="e7153fe9-ccc2-4173-a46b-e9856588eab3" transform="translate(0 0)"><svg x="630" y="698" overflow="visible"><text stroke="#ffffff" stroke-width="4" font-family="Open Sans" y="36.5" font-size="25pt" fill="#f5b720" font-weight="bold" transform="" xml:space="preserve"><tspan x="8" dy="0">CodeDeploy</tspan></text><text font-family="Open Sans" y="36.5" font-size="25pt" fill="#f5b720" font-weight="bold" transform="" xml:space="preserve"><tspan x="8" dy="0">CodeDeploy</tspan></text></svg></g></g><g opacity="1"><g id="08d21777-e2f5-4c18-9ac2-1de0d70206f6" transform="translate(0 0)"><svg x="630" y="293" overflow="visible"><text stroke="#ffffff" stroke-width="4" font-family="Open Sans" y="36.5" font-size="25pt" fill="#f5b720" font-weight="bold" transform="" xml:space="preserve"><tspan x="8" dy="0">Commit</tspan></text><text font-family="Open Sans" y="36.5" font-size="25pt" fill="#f5b720" font-weight="bold" transform="" xml:space="preserve"><tspan x="8" dy="0">Commit</tspan></text></svg></g></g><g opacity="1"><g id="b8299f8a-3c56-4c6f-9589-dd52263d698a" transform="translate(0 0)"><svg x="608" y="923" overflow="visible"><text stroke="#ffffff" stroke-width="4" font-family="Open Sans" y="36.5" font-size="25pt" fill="#f5b720" font-weight="bold" transform="" xml:space="preserve"><tspan x="8" dy="0">AutoScaling Group</tspan></text><text font-family="Open Sans" y="36.5" font-size="25pt" fill="#f5b720" font-weight="bold" transform="" xml:space="preserve"><tspan x="8" dy="0">AutoScaling Group</tspan></text></svg></g></g><g opacity="1"><g id="dc7d134d-5934-4c4a-a19e-e9e7c51ad366" transform="translate(0 0)"><svg x="338" y="1283" overflow="visible"><text stroke="#ffffff" stroke-width="4" font-family="Open Sans" y="30.799999999999997" font-size="20pt" fill="#000000" font-weight="bold" transform="" xml:space="preserve"><tspan x="8" dy="0">EC2</tspan></text><text font-family="Open Sans" y="30.799999999999997" font-size="20pt" fill="#000000" font-weight="bold" transform="" xml:space="preserve"><tspan x="8" dy="0">EC2</tspan></text></svg></g></g><g opacity="1"><g id="463e4679-ff82-4f3e-b0fb-1c327ac60e5d" transform="translate(0 0)"><svg x="698" y="1283" overflow="visible"><text stroke="#ffffff" stroke-width="4" font-family="Open Sans" y="30.799999999999997" font-size="20pt" fill="#000000" font-weight="bold" transform="" xml:space="preserve"><tspan x="8" dy="0">EC2</tspan></text><text font-family="Open Sans" y="30.799999999999997" font-size="20pt" fill="#000000" font-weight="bold" transform="" xml:space="preserve"><tspan x="8" dy="0">EC2</tspan></text></svg></g></g><g opacity="1"><g id="ebe5b64a-1f5e-4806-8b45-48ffe9967943" transform="translate(0 0)"><svg x="630" y="338" overflow="visible"><text stroke="#ffffff" stroke-width="4" font-family="Open Sans" y="23.96" font-size="14pt" fill="#000000" font-weight="bold" transform="" xml:space="preserve"><tspan x="8" dy="0">GitHub</tspan><tspan x="8" dy="1.1em">CodeCommit</tspan><tspan x="8" dy="1.1em">S3</tspan></text><text font-family="Open Sans" y="23.96" font-size="14pt" fill="#000000" font-weight="bold" transform="" xml:space="preserve"><tspan x="8" dy="0">GitHub</tspan><tspan x="8" dy="1.1em">CodeCommit</tspan><tspan x="8" dy="1.1em">S3</tspan></text></svg></g></g></g><g></g></g></svg>