<?xml version="1.0" standalone="no"?>
<!DOCTYPE svg PUBLIC "-//W3C//DTD SVG 1.1//EN"
  "http://www.w3.org/Graphics/SVG/1.1/DTD/svg11.dtd">
<svg version="1.1" xmlns="http://www.w3.org/2000/svg" xmlns:xlink="http://www.w3.org/1999/xlink" width="1920" height="1080" viewBox="-1040.888888888889 -32 1889.7777777777778 1063" id="ccdiagram"><filter id="grayscale"><feColorMatrix type="matrix" values="0.3333 0.3333 0.3333 0 0 0.3333 0.3333 0.3333 0 0 0.3333 0.3333 0.3333 0 0 0 0 0 1 0"></feColorMatrix></filter><defs><style type="text/css">@import url('https://fonts.googleapis.com/css?family=Open+Sans:400,700|Inconsolata:400');</style></defs><g><g pointer-events="auto"><g opacity="1"><g><g><polygon points="-64 148, 512 481, 512 518, 0 814, -64 814, -640 481, -640 444, -128 148" fill="#ffffff" stroke-width="2" stroke="#818181"></polygon><polygon points="-96 167, 480 500, -32 796, -608 463" fill="#e6e7e8" stroke-width="0" stroke="#818181"></polygon></g></g></g><g opacity="1"><g><g><polygon points="-352 370, -256 426, -304 453, -336 453, -400 416, -400 398" fill="#4286c5" stroke-width="0" stroke="#818181"></polygon></g></g></g><g opacity="1"><g><g><polygon points="32 592, 128 648, 80 675, 48 675, -16 638, -16 620" fill="#4286c5" stroke-width="0" stroke="#818181"></polygon></g></g></g><g opacity="1"><g id="35155d75-a622-4a82-bd9c-6475b766e114"><svg x="-113" y="250" overflow="visible"><g fill="#569ddb"><polygon points="0 0, 192 111, -10 228, -202 117" stroke="#569ddb" stroke-width="40"></polygon></g></svg></g></g><g opacity="1"><g id="d3caf0f6-9837-4e1d-95db-210e74b8cc15"><svg x="144" y="398" overflow="visible"><g fill="#569ddb"><polygon points="0 0, 192 111, -13 230, -205 119" stroke="#569ddb" stroke-width="40"></polygon></g></svg></g></g></g><g pointer-events="auto"></g><g></g><g pointer-events="auto"></g><g></g><g pointer-events="auto"><g opacity="1"><g id="b5bad988-e989-4bbc-9bbf-9e8b0e06440d"><svg x="-208" y="305" overflow="visible"><polygon points="0 0, 448 259, 384 296, -64 37" fill="#f5b720"></polygon><polygon points="0 0, 448 259, 384 296, -64 37" fill="none" stroke-width="20" stroke="#f5b720" opacity="1"></polygon><g cursor="nwse-resize"><polygon points="0 0, -19 -11, 13 -30, -83 -11, -115 44, -83 26, -64 37" fill="#f5b720"></polygon><polygon points="448 259, 467 270, 499 252, 467 307, 371 326, 403 307, 384 296" fill="#f5b720"></polygon></g></svg></g></g></g><g pointer-events="none"></g><g pointer-events="auto"><g><g><g cursor="cell"><line x1="-224" y1="426" x2="-186" y2="403" stroke="red" stroke-width="8" opacity="0"></line><line x1="-224" y1="426" x2="-186" y2="403" stroke="#000000" stroke-width="2" stroke-linecap="none"></line><polygon points="-176 398, -202 403, -188 405, -185 413, -176 398" stroke-linejoin="round" fill="#000000" stroke="#000000" stroke-width="1"></polygon></g><g cursor="cell"><line x1="-224" y1="444" x2="-224" y2="426" stroke="red" stroke-width="8" opacity="0"></line><line x1="-224" y1="444" x2="-224" y2="426" stroke="#000000" stroke-width="2" stroke-linecap="round"></line></g><g cursor="cell"><line x1="32" y1="574" x2="70" y2="551" stroke="red" stroke-width="8" opacity="0"></line><line x1="32" y1="574" x2="70" y2="551" stroke="#000000" stroke-width="2" stroke-linecap="none"></line><polygon points="80 546, 54 551, 68 553, 71 561, 80 546" stroke-linejoin="round" fill="#000000" stroke="#000000" stroke-width="1"></polygon></g><g cursor="cell"><line x1="0" y1="574" x2="32" y2="574" stroke="red" stroke-width="8" opacity="0"></line><line x1="0" y1="574" x2="32" y2="574" stroke="#000000" stroke-width="2" stroke-linecap="round"></line></g><g cursor="cell"><line x1="-224" y1="444" x2="0" y2="574" stroke="red" stroke-width="8" opacity="0"></line><line x1="-224" y1="444" x2="0" y2="574" stroke="#000000" stroke-width="2" stroke-linecap="round"></line></g><g cursor="cell"><line x1="-207" y1="564" x2="-112" y2="509" stroke="red" stroke-width="8" opacity="0"></line><line x1="-207" y1="564" x2="-112" y2="509" stroke="#000000" stroke-width="2" stroke-linecap="round"></line></g></g></g><g><g cursor="cell"><line x1="-460" y1="710" x2="-298" y2="616" stroke="red" stroke-width="8" opacity="0"></line><line x1="-460" y1="710" x2="-298" y2="616" stroke="#000000" stroke-width="2" stroke-linecap="round"></line><polygon points="-288 611, -314 616, -300 618, -297 625, -288 611" stroke-linejoin="round" fill="#000000" stroke="#000000" stroke-width="1"></polygon></g></g></g><g pointer-events="auto"><g opacity="1"><g id="c90d5e2c-c692-4f73-8e30-d80e5c6fa403" transform="translate(0 0)"><svg x="-208" y="305" height="111" width="128" fill-rule="evenodd"><path d="M64 74v37l64-37V37L64 74z" fill="#b8b8bb"></path><path d="M0 37v37l64 37V74L0 37z" fill="#d2d2d4"></path><path d="M0 37L64 0l64 37-64 37L0 37z" fill="#ececed"></path><path d="M64 73.407l62.111-35.86.514.889-62.487 36.078h-.276L.743 38.072l.514-.89L64 73.407z" fill="#83838a"></path><path d="M63.486 74h1.027v36h-1.027z" fill="#83838a"></path><path d="M128 37v37l-64 37L0 74V37L64 0l64 37zM2.054 38.185v34.63L64 108.627l61.946-35.812v-34.63L64 2.373 2.054 38.185z" fill="#000000"></path></svg><svg x="-150" y="324" width="54" height="36" style="overflow: visible; cursor: default;"><rect transform="matrix(0.707 0.409 -0.707 0.409 0 0)" width="54" height="36" rx="5" ry="5" fill="#4286c5"></rect><text transform="matrix(0.707 0.409 -0.707 0.409 0 0)" font-family="Open Sans" text-anchor="middle" x="50%" font-weight="normal" font-size="20pt" y="80%" fill="#ffffff"><tspan>T2</tspan></text></svg></g></g><g opacity="1"><g id="9c786a2d-cf5c-4b63-b958-a97f28fe6494" transform="translate(0 0)"><svg x="48" y="453" height="111" width="128" fill-rule="evenodd"><path d="M64 74v37l64-37V37L64 74z" fill="#b8b8bb"></path><path d="M0 37v37l64 37V74L0 37z" fill="#d2d2d4"></path><path d="M0 37L64 0l64 37-64 37L0 37z" fill="#ececed"></path><path d="M64 73.407l62.111-35.86.514.889-62.487 36.078h-.276L.743 38.072l.514-.89L64 73.407z" fill="#83838a"></path><path d="M63.486 74h1.027v36h-1.027z" fill="#83838a"></path><path d="M128 37v37l-64 37L0 74V37L64 0l64 37zM2.054 38.185v34.63L64 108.627l61.946-35.812v-34.63L64 2.373 2.054 38.185z" fill="#000000"></path></svg><svg x="106" y="472" width="54" height="36" style="overflow: visible; cursor: default;"><rect transform="matrix(0.707 0.409 -0.707 0.409 0 0)" width="54" height="36" rx="5" ry="5" fill="#4286c5"></rect><text transform="matrix(0.707 0.409 -0.707 0.409 0 0)" font-family="Open Sans" text-anchor="middle" x="50%" font-weight="normal" font-size="20pt" y="80%" fill="#ffffff"><tspan>T2</tspan></text></svg></g></g><g opacity="1"><g id="4fa727c9-36b9-4773-bf99-258500555073" transform="translate(0 0)"><svg x="-304" y="527" height="94" width="97" fill-rule="evenodd"><path d="M0 18.6v18.6l32.333 18.6h32.334L97 37.2V18.6L64.667 0H32.333L0 18.6z" fill="#ececed"></path><path d="M64.667 55.8L97 37.2v37.2L64.667 93V55.8z" fill="#b8b8bb"></path><path d="M32.333 55.8h32.334V93H32.333V55.8zM0 37.2v37.2L32.333 93V55.8L0 37.2z" fill="#d2d2d4"></path><g fill="none" stroke="#83838a" stroke-width="1.04"><path d="M.955 37.877L32.333 55.8h32.334l31.378-17.923M32.333 55.8v36.211M64.667 55.8v36.574"></path></g><path d="M97 18.6v55.8L64.667 93H32.333L0 74.4V18.6L32.333 0h32.334L97 18.6zM32.865 1.989L1.989 19.751v53.498l30.876 17.762h31.27l30.876-17.762V19.751L64.135 1.989h-31.27z" fill="#000000"></path><path d="M69.912 15.583c11.818 6.798 11.818 17.836 0 24.635-11.817 6.798-31.007 6.798-42.824 0-11.818-6.799-11.818-17.837 0-24.635 11.817-6.799 31.007-6.799 42.824 0z" fill="#4286c5"></path><path d="M49.584 14.774c1.824 1.049 1.824 2.753 0 3.802-1.824 1.05-4.786 1.05-6.61 0-1.824-1.049-1.824-2.753 0-3.802 1.824-1.05 4.786-1.05 6.61 0zM60.451 21.025c1.825 1.049 1.825 2.753 0 3.803-1.824 1.049-4.786 1.049-6.61 0-1.824-1.05-1.824-2.754 0-3.803s4.786-1.049 6.61 0zM71.319 27.276c1.824 1.05 1.824 2.754 0 3.803-1.825 1.049-4.787 1.049-6.611 0-1.824-1.049-1.824-2.753 0-3.803 1.824-1.049 4.786-1.049 6.611 0zM38.497 33.654c1.824 1.05 1.824 2.754 0 3.803-1.825 1.05-4.787 1.05-6.611 0-1.824-1.049-1.824-2.753 0-3.803 1.824-1.049 4.786-1.049 6.611 0z" fill="#ffffff"></path><path d="M47.458 15.878c.453.26.393.717-.133 1.02-.526.303-1.32.337-1.773.076-.452-.26-.392-.717.133-1.019.526-.303 1.321-.337 1.773-.077z" fill="#ffffff"></path><path d="M48.111 15.621c1.012.582 1.012 1.526 0 2.108-1.011.582-2.653.582-3.664 0-1.012-.582-1.012-1.526 0-2.108 1.011-.582 2.653-.582 3.664 0zM58.978 21.872c1.012.582 1.012 1.527 0 2.108-1.011.582-2.653.582-3.664 0-1.012-.581-1.012-1.526 0-2.108 1.011-.581 2.653-.581 3.664 0zM69.846 28.124c1.011.581 1.011 1.526 0 2.108-1.012.582-2.654.582-3.665 0-1.011-.582-1.011-1.527 0-2.108 1.011-.582 2.653-.582 3.665 0z" fill="#4286c5"></path><path d="M37.024 34.502c1.011.582 1.011 1.526 0 2.108-1.012.582-2.654.582-3.665 0-1.011-.582-1.011-1.526 0-2.108 1.011-.582 2.653-.582 3.665 0z" fill="#ffffff"></path><g fill="#ffffff"><path d="M52.301 25.172L37.719 33.56l.482.834 14.584-8.388-.484-.834z"></path><path d="M46.993 26.089l6.654-1.146-4.324 5.168c.189-1.691-.757-3.313-2.33-4.022z" stroke="#ffffff" stroke-width=".36"></path></g><g fill="#ffffff"><path d="M43.488 19.937l-6.057 13.797.886.387 6.056-13.798-.885-.386z"></path><path d="M39.76 23.812l4.676-4.854-.405 6.716c-.855-1.474-2.582-2.221-4.271-1.862z" stroke="#ffffff" stroke-width=".36"></path></g><g fill="#ffffff"><path d="M61.953 30.061l-23.985 3.483.14.955 23.985-3.486-.14-.952z"></path><path d="M56.68 28.957l6.608 1.387-5.936 3.209c.804-1.503.526-3.358-.672-4.596h0z" stroke="#ffffff" stroke-width=".36"></path></g><path d="M37.96 33.977l13.12-7.547M37.873 33.927l5.792-13.134M38.037 34.022l22.478-3.281" fill="#ffffff" stroke="#ffffff" stroke-width="1.93"></path></svg></g></g><g opacity="1"><g id="2685515d-0fdf-4c31-b26d-7cf5ad8c321d" transform="translate(0 0)"><svg x="-520" y="645" height="95.068" width="63" viewBox="0 0 16.669 25.153"><path d="M16.668 22.903q0 1.64-.864 2.091-.865.451-2.297-.376L3.161 18.645q-1.433-.827-2.297-2.276Q.001 14.921 0 13.28q0-.723.042-1.39.042-.666.166-1.394.124-.727.313-1.302.19-.575.51-1.039.319-.464.733-.683.414-.22 1.012-.147.598.073 1.32.49.107.06.497.58.391.52.882 1.165.491.646 1.279 1.394.788.75 1.58 1.207.793.458 1.58.618.788.161 1.28.083.49-.079.881-.147.39-.069.497-.007.722.416 1.32 1.035.598.619 1.013 1.315.414.697.734 1.531t.509 1.627q.19.793.313 1.664.124.872.166 1.586.042.713.042 1.438zM12.88 8.51q0 2.173-1.332 2.942-1.332.769-3.214-.318-1.882-1.086-3.214-3.393Q3.79 5.434 3.79 3.26q0-2.173 1.331-2.942 1.332-.77 3.214.317t3.214 3.394q1.332 2.306 1.332 4.48z" fill="#000" stroke="#000000" stroke-width=".268"></path></svg></g></g></g><g pointer-events="auto"></g><g pointer-events="auto"><g opacity="1"><g id="beefbb3a-d4af-48a3-8729-3236ca88799d" transform="translate(0 0)"><svg x="-144" y="527" overflow="visible"><g transform="scale(0.8944271909999159) matrix(0.707 0.409 -0.707 0.409 0 0)"><circle cx="0" cy="0" fill="#000000" r="24"></circle><svg width="34" height="32" x="-17" y="-16" style="fill: rgb(255, 255, 255);"><svg xmlns="http://www.w3.org/2000/svg" width="34" height="32" viewBox="0 0 34 32"><path d="M16 16c0-2.518-2.054-4.571-4.571-4.571S6.858 13.483 6.858 16s2.054 4.571 4.571 4.571S16 18.517 16 16zm13.714 9.143c0-1.25-1.036-2.286-2.286-2.286s-2.286 1.036-2.286 2.286a2.29 2.29 0 0 0 2.286 2.286 2.29 2.29 0 0 0 2.286-2.286zm0-18.286c0-1.25-1.036-2.286-2.286-2.286s-2.286 1.036-2.286 2.286a2.29 2.29 0 0 0 2.286 2.286 2.29 2.29 0 0 0 2.286-2.286zm-6.857 7.518v3.304c0 .232-.179.5-.411.536l-2.768.429a8.133 8.133 0 0 1-.571 1.357c.5.714 1.036 1.375 1.607 2.054a.619.619 0 0 1 .125.357c0 .125-.036.25-.125.339-.357.482-2.357 2.661-2.875 2.661a.676.676 0 0 1-.375-.125L15.41 23.68a7.648 7.648 0 0 1-1.375.554c-.089.911-.179 1.893-.411 2.768a.57.57 0 0 1-.536.429H9.767c-.25 0-.5-.196-.536-.446l-.411-2.732a8.732 8.732 0 0 1-1.339-.554l-2.107 1.589a.515.515 0 0 1-.357.125.577.577 0 0 1-.375-.143c-.464-.429-2.571-2.339-2.571-2.857a.61.61 0 0 1 .125-.339c.518-.679 1.054-1.339 1.571-2.036a9.515 9.515 0 0 1-.625-1.464l-2.714-.429a.52.52 0 0 1-.429-.518v-3.304c0-.232.179-.5.411-.536l2.768-.429c.143-.464.339-.911.571-1.357a29.272 29.272 0 0 0-1.607-2.054c-.071-.107-.125-.232-.125-.357s.036-.25.125-.357c.357-.482 2.357-2.643 2.875-2.643.143 0 .268.054.375.125l2.054 1.607a9.216 9.216 0 0 1 1.375-.571c.089-.893.179-1.875.411-2.75a.57.57 0 0 1 .536-.429h3.321c.25 0 .5.196.536.446l.411 2.732c.464.143.911.339 1.339.554l2.107-1.589a.547.547 0 0 1 .357-.125c.143 0 .268.054.375.143.464.429 2.571 2.357 2.571 2.857a.61.61 0 0 1-.125.339c-.518.696-1.054 1.339-1.554 2.036.232.482.446.964.607 1.464l2.714.411c.25.054.429.286.429.536zm11.429 9.518v2.5c0 .268-2.304.518-2.661.554a4.332 4.332 0 0 1-.536.929c.161.357.911 2.143.911 2.464 0 .054-.018.089-.071.125-.214.125-2.125 1.268-2.214 1.268-.232 0-1.571-1.786-1.75-2.054-.179.018-.357.036-.536.036s-.357-.018-.536-.036c-.179.268-1.518 2.054-1.75 2.054-.089 0-2-1.143-2.214-1.268a.153.153 0 0 1-.071-.125c0-.304.75-2.107.911-2.464a4.35 4.35 0 0 1-.536-.929c-.357-.036-2.661-.286-2.661-.554v-2.5c0-.268 2.304-.518 2.661-.554.143-.321.321-.643.536-.929-.161-.357-.911-2.161-.911-2.464 0-.036.018-.089.071-.125.214-.107 2.125-1.25 2.214-1.25.232 0 1.571 1.768 1.75 2.036.179-.018.357-.036.536-.036s.357.018.536.036c.5-.696 1.036-1.393 1.643-2l.107-.036c.089 0 2 1.125 2.214 1.25a.153.153 0 0 1 .071.125c0 .321-.75 2.107-.911 2.464.214.286.393.607.536.929.357.036 2.661.286 2.661.554zm0-18.286v2.5c0 .268-2.304.518-2.661.554a4.332 4.332 0 0 1-.536.929c.161.357.911 2.143.911 2.464 0 .054-.018.089-.071.125-.214.125-2.125 1.268-2.214 1.268-.232 0-1.571-1.786-1.75-2.054-.179.018-.357.036-.536.036s-.357-.018-.536-.036c-.179.268-1.518 2.054-1.75 2.054-.089 0-2-1.143-2.214-1.268a.153.153 0 0 1-.071-.125c0-.304.75-2.107.911-2.464a4.35 4.35 0 0 1-.536-.929c-.357-.036-2.661-.286-2.661-.554v-2.5c0-.268 2.304-.518 2.661-.554.143-.321.321-.643.536-.929-.161-.357-.911-2.161-.911-2.464 0-.036.018-.089.071-.125.214-.107 2.125-1.25 2.214-1.25.232 0 1.571 1.768 1.75 2.036.179-.018.357-.036.536-.036s.357.018.536.036c.5-.696 1.036-1.393 1.643-2l.107-.036c.089 0 2 1.125 2.214 1.25A.153.153 0 0 1 32 1.66c0 .321-.75 2.107-.911 2.464.214.286.393.607.536.929.357.036 2.661.286 2.661.554z"></path></svg></svg></g></svg></g></g><g opacity="1"><g id="c8c0335e-d6b0-4bae-8a4a-89dcf1a0eaee" transform="translate(0 0)"><svg x="-352" y="648" overflow="visible"><g transform=" "><circle cx="0" cy="0" fill="transparent" r="40"></circle><svg width="100" height="100" x="-50" y="-50" style=""><svg id="Layer_1" data-name="Layer 1" xmlns="http://www.w3.org/2000/svg" width="100" height="100" viewBox="0 0 100 100"><g><circle cx="50" cy="51.25" r="30.43" fill="#9d5025"></circle><path fill="#9d5025" d="M19.57 48.75h60.86v2.5H19.57z"></path><circle cx="50" cy="48.75" r="30.43" fill="#f58536"></circle><path d="M27.06 51.77V51a10 10 0 0 1 5.63-8.39A12.32 12.32 0 0 1 55.63 37 6.82 6.82 0 0 1 65 42c4.59.9 7.9 5.29 7.9 9v.73c0 4.5-4.66 8.45-10 8.45H37c-5.28.04-9.94-3.91-9.94-8.41z" fill="#fff"></path><path d="M56.25 40.24l-1.94 1.33-1-2.14A9.19 9.19 0 0 0 45 34a9.17 9.17 0 0 0-9.17 9.18v1.7l-1.44.42a6.74 6.74 0 0 0-4.2 5.7v.73c0 2.47 3 5.34 6.85 5.34H63c3.85 0 6.84-2.87 6.84-5.34V51c0-2.48-2.77-5.75-6-6l-1.74-.14-.1-1.72a3.67 3.67 0 0 0-5.75-2.89z" fill="#f58536"></path></g></svg></svg></g></svg></g></g><g opacity="1"><g id="d201b797-67bb-43e9-a93c-ace833abae3d" transform="translate(0 0)"><svg x="256" y="296" overflow="visible"><g transform="scale(1.5625) "><circle cx="0" cy="0" fill="transparent" r="40"></circle><svg width="100" height="100" x="-50" y="-50" style=""><svg id="Layer_1" data-name="Layer 1" xmlns="http://www.w3.org/2000/svg" width="100" height="100" viewBox="0 0 100 100"><path d="M85.23 58v3.19C85.23 67 78.85 73 71 73H29c-7.85 0-14.23-6-14.23-11.81V58z" fill="#9d5125"></path><path d="M41.89 26.9a18 18 0 0 1 16.42 10.56 9.14 9.14 0 0 1 14.29 7.18c7.1.59 12.63 7.44 12.63 12.88v1.18c0 5.85-6.38 11.78-14.26 11.78H29c-7.86 0-14.24-5.93-14.24-11.78v-1.17c0-4.51 3.79-10.71 9.12-12.25v-.51A17.94 17.94 0 0 1 41.89 26.9z" fill="#f58535"></path><path d="M31.84 47.81h2.79L37.43 61l3-13.16h2.79l-4.15 16.45h-3.35zM44.91 47.81h5.22c3.16 0 4.55 2 4.55 4.8s-1.73 4.87-4.82 4.87h-2.32v6.81h-2.63zm2.63 7.69h1.87c1.41 0 2.63-.76 2.63-2.84 0-1.78-.71-2.86-2.82-2.86h-1.68zM67 58.38v.35c0 3-1.2 5.89-5.08 5.89-4.16 0-5.45-2.68-5.45-8.56s1.29-8.56 5.47-8.56c4.68 0 5 3.46 5 5.17V53h-2.62v-.28c0-1.52-.46-3.28-2.35-3.21s-2.82 1.2-2.82 6.51.85 6.61 2.85 6.61c2.19 0 2.45-2.45 2.45-4v-.28z" fill="#fff"></path></svg></svg></g></svg></g></g><g opacity="1"><g id="ad47fca4-0b3b-4719-9de9-775467f48c40" transform="translate(0 0)"><svg x="-416" y="685" overflow="visible"><g transform="scale(0.8944271909999159) matrix(0.707 0.409 -0.707 0.409 0 0)"><circle cx="0" cy="0" fill="#000000" r="23"></circle><svg width="30" height="32" x="-15" y="-16" style="fill: rgb(255, 255, 255);"><svg xmlns="http://www.w3.org/2000/svg" width="30" height="32" viewBox="0 0 30 32"><path d="M26 21.714c0-.464-.179-.893-.5-1.214l-3.714-3.714a1.733 1.733 0 0 0-1.214-.5c-.518 0-.929.196-1.286.571.589.589 1.286 1.089 1.286 2 0 .946-.768 1.714-1.714 1.714-.911 0-1.411-.696-2-1.286-.375.357-.589.768-.589 1.304 0 .446.179.893.5 1.214l3.679 3.696c.321.321.768.482 1.214.482s.893-.161 1.214-.464l2.625-2.607c.321-.321.5-.75.5-1.196zM13.446 9.125c0-.446-.179-.893-.5-1.214L9.267 4.215c-.321-.321-.768-.5-1.214-.5s-.893.179-1.214.482L4.214 6.804a1.702 1.702 0 0 0 0 2.41l3.714 3.714c.321.321.768.482 1.214.482.518 0 .929-.179 1.286-.554-.589-.589-1.286-1.089-1.286-2 0-.946.768-1.714 1.714-1.714.911 0 1.411.696 2 1.286.375-.357.589-.768.589-1.304zm15.983 12.589a5.11 5.11 0 0 1-1.518 3.625l-2.625 2.607a5.106 5.106 0 0 1-3.625 1.482 5.077 5.077 0 0 1-3.643-1.518l-3.679-3.696a5.106 5.106 0 0 1-1.482-3.625c0-1.411.571-2.75 1.571-3.732l-1.571-1.571a5.187 5.187 0 0 1-3.714 1.571 5.165 5.165 0 0 1-3.643-1.5l-3.714-3.714A5.09 5.09 0 0 1 .286 8a5.11 5.11 0 0 1 1.518-3.625l2.625-2.607A5.106 5.106 0 0 1 8.054.286c1.375 0 2.679.536 3.643 1.518L15.376 5.5a5.106 5.106 0 0 1 1.482 3.625c0 1.411-.571 2.75-1.571 3.732l1.571 1.571a5.187 5.187 0 0 1 3.714-1.571c1.357 0 2.679.536 3.643 1.5l3.714 3.714a5.09 5.09 0 0 1 1.5 3.643z"></path></svg></svg></g></svg></g></g></g><g pointer-events="auto"><g opacity="1"><g id="1795d0b6-1f55-43b4-adbd-be2def759bde" transform="translate(0 0)"><svg x="-320" y="389" overflow="visible"><text stroke="#000000" stroke-width="2" font-family="Open Sans" y="65" font-size="50pt" fill="#ffffff" font-weight="bold" transform="matrix(0.707 0.409 -0.707 0.409 0 0)" xml:space="preserve"><tspan x="8" dy="0">A</tspan></text><text font-family="Open Sans" y="65" font-size="50pt" fill="#ffffff" font-weight="bold" transform="matrix(0.707 0.409 -0.707 0.409 0 0)" xml:space="preserve"><tspan x="8" dy="0">A</tspan></text></svg></g></g><g opacity="1"><g id="284e5283-c400-4025-ab50-049f66efb11e" transform="translate(0 0)"><svg x="0" y="370" overflow="visible"><text stroke="#ffffff" stroke-width="4" font-family="Open Sans" y="30.799999999999997" font-size="20pt" fill="#004b91" font-weight="bold" transform="matrix(0.707 0.409 -0.707 0.409 0 0)" xml:space="preserve"><tspan x="8" dy="0">Auto Scaling</tspan></text><text font-family="Open Sans" y="30.799999999999997" font-size="20pt" fill="#004b91" font-weight="bold" transform="matrix(0.707 0.409 -0.707 0.409 0 0)" xml:space="preserve"><tspan x="8" dy="0">Auto Scaling</tspan></text></svg></g></g><g opacity="1"><g id="34e3c7b8-71a7-4231-8aab-5f31312f0f64" transform="translate(0 0)"><svg x="-192" y="592" overflow="visible"><text stroke="#ffffff" stroke-width="4" font-family="Open Sans" y="30.799999999999997" font-size="20pt" fill="#f5b720" font-weight="bold" transform="matrix(0.707 0.409 -0.707 0.409 0 0)" xml:space="preserve"><tspan x="8" dy="0">Elastic Load</tspan><tspan x="8" dy="1.1em">Balancing</tspan></text><text font-family="Open Sans" y="30.799999999999997" font-size="20pt" fill="#f5b720" font-weight="bold" transform="matrix(0.707 0.409 -0.707 0.409 0 0)" xml:space="preserve"><tspan x="8" dy="0">Elastic Load</tspan><tspan x="8" dy="1.1em">Balancing</tspan></text></svg></g></g><g opacity="1"><g id="31910fa9-cc37-4ab1-8c23-6a79e72e3cc8" transform="translate(0 0)"><svg x="-96" y="259" overflow="visible"><text stroke="#000000" stroke-width="2" font-family="Open Sans" y="30.799999999999997" font-size="20pt" fill="#ffffff" font-weight="bold" transform="matrix(0.707 0.409 -0.707 0.409 0 0)" xml:space="preserve"><tspan x="8" dy="0">Availability Zone</tspan></text><text font-family="Open Sans" y="30.799999999999997" font-size="20pt" fill="#ffffff" font-weight="bold" transform="matrix(0.707 0.409 -0.707 0.409 0 0)" xml:space="preserve"><tspan x="8" dy="0">Availability Zone</tspan></text></svg></g></g><g opacity="1"><g id="4d88fce8-b149-40cc-80f8-9fbc14dd150c" transform="translate(0 0)"><svg x="160" y="407" overflow="visible"><text stroke="#000000" stroke-width="2" font-family="Open Sans" y="30.799999999999997" font-size="20pt" fill="#ffffff" font-weight="bold" transform="matrix(0.707 0.409 -0.707 0.409 0 0)" xml:space="preserve"><tspan x="8" dy="0">Availability Zone</tspan></text><text font-family="Open Sans" y="30.799999999999997" font-size="20pt" fill="#ffffff" font-weight="bold" transform="matrix(0.707 0.409 -0.707 0.409 0 0)" xml:space="preserve"><tspan x="8" dy="0">Availability Zone</tspan></text></svg></g></g><g opacity="1"><g id="1a2dc397-a74c-4cd7-9741-ab02bcc41004" transform="translate(0 0)"><svg x="96" y="574" overflow="visible"><text stroke="#000000" stroke-width="2" font-family="Open Sans" y="36.5" font-size="25pt" fill="#ffffff" font-weight="bold" transform="matrix(0.707 0.409 -0.707 0.409 0 0)" xml:space="preserve"><tspan x="8" dy="0">EC2</tspan></text><text font-family="Open Sans" y="36.5" font-size="25pt" fill="#ffffff" font-weight="bold" transform="matrix(0.707 0.409 -0.707 0.409 0 0)" xml:space="preserve"><tspan x="8" dy="0">EC2</tspan></text></svg></g></g><g opacity="1"><g id="751e768f-8fa5-4208-825c-ebd08caa225e" transform="translate(0 0)"><svg x="-352" y="370" overflow="visible"><text stroke="#000000" stroke-width="2" font-family="Open Sans" y="36.5" font-size="25pt" fill="#ffffff" font-weight="bold" transform="matrix(0.707 0.409 -0.707 0.409 0 0)" xml:space="preserve"><tspan x="8" dy="0">AZ</tspan></text><text font-family="Open Sans" y="36.5" font-size="25pt" fill="#ffffff" font-weight="bold" transform="matrix(0.707 0.409 -0.707 0.409 0 0)" xml:space="preserve"><tspan x="8" dy="0">AZ</tspan></text></svg></g></g><g opacity="1"><g id="3c67307a-f38c-4062-877c-14ad8cb6d261" transform="translate(0 0)"><svg x="68" y="615" overflow="visible"><text stroke="#000000" stroke-width="2" font-family="Open Sans" y="65" font-size="50pt" fill="#ffffff" font-weight="bold" transform="matrix(0.707 0.409 -0.707 0.409 0 0)" xml:space="preserve"><tspan x="8" dy="0">B</tspan></text><text font-family="Open Sans" y="65" font-size="50pt" fill="#ffffff" font-weight="bold" transform="matrix(0.707 0.409 -0.707 0.409 0 0)" xml:space="preserve"><tspan x="8" dy="0">B</tspan></text></svg></g></g><g opacity="1"><g id="a8d2e8fb-f21f-4378-8eef-961a99bcf879" transform="translate(0 0)"><svg x="32" y="592" overflow="visible"><text stroke="#000000" stroke-width="2" font-family="Open Sans" y="36.5" font-size="25pt" fill="#ffffff" font-weight="bold" transform="matrix(0.707 0.409 -0.707 0.409 0 0)" xml:space="preserve"><tspan x="8" dy="0">AZ</tspan></text><text font-family="Open Sans" y="36.5" font-size="25pt" fill="#ffffff" font-weight="bold" transform="matrix(0.707 0.409 -0.707 0.409 0 0)" xml:space="preserve"><tspan x="8" dy="0">AZ</tspan></text></svg></g></g><g opacity="1"><g id="d0e65e13-bcea-4d24-8bc9-ba81685e0789" transform="translate(0 0)"><svg x="-336" y="675" overflow="visible"><text stroke="#ffffff" stroke-width="4" font-family="Open Sans" y="30.799999999999997" font-size="20pt" fill="#f5b720" font-weight="bold" transform="matrix(0.707 0.409 -0.707 0.409 0 0)" xml:space="preserve"><tspan x="8" dy="0">Internet Gateway</tspan></text><text font-family="Open Sans" y="30.799999999999997" font-size="20pt" fill="#f5b720" font-weight="bold" transform="matrix(0.707 0.409 -0.707 0.409 0 0)" xml:space="preserve"><tspan x="8" dy="0">Internet Gateway</tspan></text></svg></g></g><g opacity="1"><g id="8a95ed49-09a7-45ac-b7d6-ccf9e60aa6d9" transform="translate(0 0)"><svg x="-160" y="537" overflow="visible"><text stroke="#ffffff" stroke-width="4" font-family="Open Sans" y="30.799999999999997" font-size="20pt" fill="#f5b720" font-weight="bold" transform="matrix(0.707 0.409 -0.707 0.409 0 0)" xml:space="preserve"><tspan x="8" dy="0">Reverse-proxy</tspan></text><text font-family="Open Sans" y="30.799999999999997" font-size="20pt" fill="#f5b720" font-weight="bold" transform="matrix(0.707 0.409 -0.707 0.409 0 0)" xml:space="preserve"><tspan x="8" dy="0">Reverse-proxy</tspan></text></svg></g></g></g><g></g></g></svg>